<svg width="270" height="68" viewBox="0 0 270 68" fill="none" xmlns="http://www.w3.org/2000/svg">
<g clip-path="url(#clip0_1_9503)">
<path d="M76.2861 35.0678H88.1858C97.9614 35.0678 104.044 28.421 104.044 19.0238C104.044 9.6266 97.9494 2.9798 88.1858 2.9798H76.2861V35.0678ZM88.1376 9.44565C93.9426 9.44565 97.1046 13.5954 97.1046 19.0238C97.1046 24.4522 93.9426 28.6019 88.1376 28.6019H82.9963V9.44565H88.1376ZM109.234 35.0678H115.932V2.99186H109.234V35.0799V35.0678ZM139.49 3.93279C137.51 3.04011 135 2.47314 132.599 2.47314C124.295 2.47314 121.411 7.3346 121.411 11.81C121.411 15.441 122.738 18.1794 126.987 20.6282L131.38 23.2218C133.178 24.2592 133.926 25.2484 133.926 26.3341C133.926 28.0832 132.514 29.3016 129.955 29.3016C126.987 29.3016 123.861 27.8902 122.123 26.515V33.9218C124.15 34.7662 127.083 35.5744 130.245 35.5744C137.704 35.5744 141.059 31.0025 141.059 25.948C141.059 22.3653 139.405 19.5787 135.254 17.0816L131.005 14.5363C129.449 13.6436 128.604 12.6544 128.604 11.617C128.604 9.96436 129.883 8.73392 132.574 8.73392C135.024 8.73392 137.86 9.86786 139.514 11.05V3.93279H139.49ZM146.236 35.0678H152.934V23.3183H157.182C163.458 23.3183 167.755 19.4943 167.755 13.1249C167.755 6.75556 163.458 2.9798 157.182 2.9798H146.236V35.0678ZM160.863 13.1732C160.863 15.622 159.258 16.8524 157.086 16.8524H152.934V9.44565H157.086C159.258 9.44565 160.863 10.6761 160.863 13.1732ZM190.082 2.9798V23.5475C190.082 26.8045 187.957 29.0724 184.506 29.0724C181.054 29.0724 178.978 26.8045 178.978 23.5475V2.99186H172.28V22.9926C172.28 30.8698 176.999 35.5865 184.506 35.5865C192.013 35.5865 196.78 30.8698 196.78 22.9926V2.99186H190.082V2.9798ZM208.679 35.0678H215.377V9.44565H223.162V2.99186H200.883V9.45771H208.667V35.0799L208.679 35.0678ZM245.923 35.0678V28.6019H234.361V22.1361H244.982V15.6702H234.361V9.44565H245.923V2.99186H227.651V35.0799H245.923V35.0678ZM268.443 3.93279C266.464 3.04011 263.954 2.47314 261.552 2.47314C253.249 2.47314 250.364 7.3346 250.364 11.81C250.364 15.441 251.692 18.1794 255.94 20.6282L260.333 23.2218C262.131 24.2592 262.88 25.2484 262.88 26.3341C262.88 28.0832 261.468 29.3016 258.909 29.3016C255.94 29.3016 252.814 27.8902 251.077 26.515V33.9218C253.104 34.7662 256.037 35.5744 259.199 35.5744C266.657 35.5744 270.012 31.0025 270.012 25.948C270.012 22.3653 268.359 19.5787 264.207 17.0816L259.959 14.5363C258.402 13.6436 257.557 12.6544 257.557 11.617C257.557 9.96436 258.837 8.73392 261.528 8.73392C263.978 8.73392 266.814 9.86786 268.467 11.05V3.93279H268.443Z" fill="white"/>
<path d="M86.8946 67.4692L80.9327 51.4614V67.4692H75.5742V41.8109H82.1396L89.2721 60.6415L96.3685 41.8109H102.898V67.4692H97.5392V51.4614L91.5773 67.4692H86.8946ZM108.57 67.4692V41.8109H123.185V46.986H113.94V51.9681H122.437V57.1432H113.94V62.3182H123.185V67.4933H108.57V67.4692ZM128.133 41.8109H137.643C145.464 41.8109 150.327 47.1307 150.327 54.6461C150.327 62.1614 145.452 67.4813 137.643 67.4813H128.133V41.8229V41.8109ZM133.492 46.986V62.3062H137.607C142.254 62.3062 144.776 59.025 144.776 54.6461C144.776 50.2672 142.241 46.986 137.607 46.986H133.492ZM154.491 41.8109H159.85V67.4692H154.491V41.8109ZM179.642 62.0046H170.47L168.539 67.4813H162.541L172.051 41.8229H178.049L187.559 67.4813H181.561L179.63 62.0046H179.642ZM172.244 56.8295H177.904L175.068 48.8316L172.232 56.8295H172.244ZM192.821 46.9739H186.594V41.7988H204.419V46.9739H198.192V67.4692H192.833V46.9739H192.821ZM208.004 41.7988H213.362V67.4571H208.004V41.7988ZM230.656 41.3887C238.175 41.3887 243.872 47.1307 243.872 54.634C243.872 62.1373 238.175 67.8794 230.656 67.8794C223.138 67.8794 217.441 62.1373 217.441 54.634C217.441 47.1307 223.138 41.3887 230.656 41.3887ZM230.656 62.5233C235.001 62.5233 238.32 59.0129 238.32 54.634C238.32 50.2551 235.001 46.7447 230.656 46.7447C226.312 46.7447 222.957 50.2913 222.957 54.634C222.957 58.9768 226.276 62.5233 230.656 62.5233ZM253.466 52.6315V67.4692H248.108V45.0197L246.334 42.1848V41.8109H252.682L263.93 58.1565V41.8109H269.288V67.4692H263.93L253.466 52.6315Z" fill="#FECE63"/>
<path d="M34.0215 0C15.2306 0 0 15.2237 0 33.994C0 52.7642 15.2306 67.9879 34.0215 67.9879C52.8124 67.9879 68.031 52.7642 68.031 33.994C68.031 15.2237 52.8004 0 34.0215 0ZM57.652 56.0334C57.652 56.0334 57.5313 56.1419 57.483 56.2022C56.5055 57.2397 55.4555 58.2047 54.3452 59.1095C54.1883 59.2421 54.0193 59.3628 53.8624 59.4955C53.609 59.6885 53.3555 59.8936 53.09 60.0745C50.1211 62.2941 46.7298 64.0312 42.7472 65.1048C42.3489 65.2134 41.9507 65.322 41.5524 65.4185C41.4317 65.4426 41.3231 65.4788 41.2024 65.515C38.8973 66.0337 36.4956 66.3232 34.0215 66.3232C31.5475 66.3232 29.3389 66.0578 27.1183 65.5753C26.9976 65.5632 26.889 65.5271 26.7804 65.4909C26.2976 65.3823 25.8149 65.2617 25.3442 65.129C25.0545 65.0445 24.777 64.9721 24.4873 64.8877C23.9321 64.7188 23.377 64.5258 22.8339 64.3207C22.5563 64.2122 22.2787 64.1036 22.0012 63.995C21.5788 63.8261 21.1564 63.6452 20.746 63.4643C20.5529 63.3798 20.3478 63.2954 20.1547 63.1989C19.5392 62.9093 18.9237 62.5836 18.3323 62.2579C18.2237 62.1976 18.103 62.1252 17.9944 62.0649C17.3909 61.7272 16.8116 61.3653 16.2323 60.9792C16.1961 60.9551 16.172 60.9431 16.1358 60.9189C15.5324 60.5208 14.9531 60.0986 14.3738 59.6644C14.241 59.5679 14.1203 59.4713 13.9996 59.3628C13.5772 59.0371 13.1669 58.6872 12.7686 58.3374C12.4549 58.072 12.1531 57.7825 11.8514 57.5051C11.61 57.2759 11.3566 57.0467 11.1273 56.8054C10.9945 56.6727 10.8377 56.54 10.7049 56.3952V56.3591C5.14125 50.5567 1.71375 42.6915 1.71375 34.0181C1.70168 16.1646 16.172 1.7009 34.0215 1.7009C51.8711 1.7009 66.3293 16.1646 66.3293 33.994C66.3293 42.5106 63.0346 50.243 57.652 56.0092V56.0334Z" fill="#FECE63"/>
<path d="M19.8291 26.8525C19.9015 26.8525 19.986 26.8525 20.0584 26.8646C20.0584 26.8646 20.0584 26.8646 20.0463 26.8646C19.9739 26.8646 19.9015 26.8646 19.8291 26.8525Z" fill="#805C63"/>
<path d="M21.9895 63.9707C21.5671 63.8018 21.1447 63.6209 20.7344 63.4399C21.1447 63.633 21.5671 63.8018 21.9895 63.9707Z" fill="#805C63"/>
<path d="M27.2149 36.4427C27.2149 35.3088 27.0822 34.2231 26.8046 33.1616C26.7925 33.1133 26.7804 33.053 26.7563 33.0048C26.7442 32.9565 26.7201 32.8962 26.708 32.8479C26.6839 32.7514 26.6477 32.6549 26.6236 32.5584C26.6236 32.5584 26.6236 32.5343 26.6236 32.5222C26.6115 32.474 26.5994 32.4378 26.5753 32.3895C26.5511 32.3292 26.5391 32.281 26.5149 32.2206C26.5029 32.1724 26.4787 32.1121 26.4546 32.0638C26.4305 32.0156 26.4184 31.9553 26.3943 31.907C25.9115 30.6645 25.2598 29.6633 24.4874 28.8912C24.3546 28.7585 24.2098 28.6258 24.0771 28.5052C24.0047 28.4449 23.9322 28.3846 23.8598 28.3242C23.715 28.2157 23.5581 28.1071 23.4133 27.9985C23.3409 27.9503 23.2564 27.902 23.184 27.8538C23.0633 27.7814 22.9547 27.7211 22.834 27.6487C22.7495 27.6125 22.6771 27.5643 22.5926 27.5281C22.4719 27.4678 22.3513 27.4195 22.2185 27.3713C22.0978 27.323 21.9651 27.2748 21.8323 27.2265C21.7961 27.2144 21.7478 27.2024 21.6995 27.1903C21.6392 27.1662 21.5668 27.1541 21.5064 27.13C21.4461 27.1059 21.3737 27.0938 21.3133 27.0817C21.2771 27.0817 21.253 27.0697 21.2168 27.0576C21.2771 27.0697 21.3496 27.0938 21.4099 27.1059C21.4702 27.13 21.5427 27.1421 21.603 27.1662C21.6513 27.1782 21.6875 27.1903 21.7357 27.2024C21.8685 27.2506 21.9892 27.2989 22.1219 27.3471C22.2426 27.3954 22.3754 27.4557 22.4961 27.504C22.5806 27.5401 22.665 27.5884 22.7374 27.6246C22.8581 27.6849 22.9788 27.7573 23.0874 27.8297C23.1598 27.8779 23.2443 27.9262 23.3167 27.9744C23.4736 28.083 23.6185 28.1795 23.7633 28.3001C23.8357 28.3604 23.9081 28.4208 23.9805 28.4811C24.1253 28.6017 24.2581 28.7344 24.3909 28.8671C25.1753 29.6391 25.815 30.6404 26.2977 31.8829C26.3218 31.9311 26.3339 31.9914 26.358 32.0397C26.3822 32.088 26.3942 32.1483 26.4184 32.1965C26.4425 32.2568 26.4546 32.3051 26.4787 32.3654C26.4908 32.4137 26.5029 32.4498 26.527 32.4981C26.527 32.5102 26.527 32.5222 26.527 32.5343C26.5632 32.6308 26.5873 32.7273 26.6115 32.8238C26.6236 32.8721 26.6477 32.9324 26.6598 32.9806C26.6598 33.0168 26.6718 33.0409 26.6839 33.0771C26.6839 33.0771 26.6839 33.1013 26.6839 33.1133C26.6839 33.1133 26.6839 33.1374 26.6839 33.1495C26.9615 34.2111 27.0942 35.3088 27.0942 36.4307C27.0942 36.6478 27.0942 36.877 27.0942 37.0942L34.2389 44.1149L34.2751 44.0787L27.1908 37.1183C27.1908 36.9012 27.1908 36.6719 27.1908 36.4548L27.2149 36.4427Z" fill="#805C63"/>
<path d="M24.4757 64.8634C23.9205 64.6945 23.3654 64.5015 22.8223 64.2964C23.3654 64.5015 23.9205 64.6824 24.4757 64.8634Z" fill="#805C63"/>
<path d="M50.6278 48.7594C50.6278 48.7594 50.6278 48.7353 50.6278 48.7112C50.6278 48.675 50.6278 48.6388 50.6278 48.6026C50.6278 48.5664 50.6278 48.5302 50.652 48.494C50.652 48.4699 50.652 48.4337 50.6761 48.4096V48.3854C50.6882 48.3251 50.7123 48.2769 50.7364 48.2166C50.7364 48.2166 50.7364 48.1924 50.7485 48.1804C50.7485 48.1562 50.7727 48.1321 50.7727 48.108C50.7727 48.108 50.7727 48.108 50.7727 48.0959C50.7847 48.0718 50.7968 48.0356 50.8089 48.0115C50.8209 47.9753 50.8451 47.9512 50.8571 47.927C50.8692 47.8909 50.8933 47.8547 50.9175 47.8185C50.9295 47.7943 50.9537 47.7582 50.9658 47.734C50.9899 47.6978 51.002 47.6617 51.0261 47.6255C51.0502 47.5893 51.0623 47.5652 51.0864 47.529C51.1106 47.4928 51.1226 47.4686 51.1468 47.4325C51.1709 47.3963 51.183 47.3601 51.2071 47.336C51.3761 47.0585 51.545 46.769 51.714 46.4915C51.714 46.4915 51.714 46.4795 51.7261 46.4674C51.895 46.19 52.0519 45.9125 52.2209 45.623C52.2571 45.5627 52.2933 45.5024 52.3174 45.4541C52.4381 45.249 52.5588 45.0319 52.6795 44.8268C52.6795 44.8268 52.6795 44.8268 52.6795 44.8148C52.8726 44.477 53.0536 44.1513 53.2467 43.8135C53.3553 43.6205 53.464 43.4275 53.5605 43.2345C53.6691 43.0415 53.7657 42.8485 53.8743 42.6554C53.9226 42.571 53.9588 42.4866 54.0071 42.4021C54.0553 42.3177 54.0915 42.2332 54.1398 42.1488C54.1398 42.1488 54.1398 42.1367 54.1519 42.1247C54.2122 42.0161 54.2605 41.9196 54.3208 41.811C54.3208 41.811 54.3329 41.7869 54.345 41.7748C54.345 41.7748 54.345 41.7507 54.357 41.7386C54.3691 41.7025 54.3933 41.6663 54.4053 41.6421C54.4295 41.5939 54.4536 41.5456 54.4777 41.4974C54.5019 41.4612 54.526 41.4129 54.5381 41.3768C54.5622 41.3164 54.5984 41.2682 54.6226 41.2079C54.695 41.0752 54.7553 40.9304 54.8277 40.7977C54.876 40.6892 54.9363 40.5806 54.9846 40.472C54.9967 40.4358 55.0208 40.4117 55.0329 40.3755C55.1053 40.2308 55.1777 40.086 55.2501 39.9292C55.2501 39.9292 55.2501 39.9171 55.2501 39.905C55.2743 39.8568 55.2984 39.7965 55.3225 39.7362C55.3346 39.7 55.3587 39.6638 55.3708 39.6276C55.3708 39.6155 55.3829 39.5914 55.395 39.5793C55.395 39.5793 55.395 39.5673 55.395 39.5552C55.407 39.519 55.4312 39.4828 55.4432 39.4466C55.4432 39.4346 55.4553 39.4225 55.4674 39.4105C55.5156 39.314 55.5639 39.2174 55.6001 39.1209C56.5053 37.1064 57.5673 35.0074 57.0846 32.7637C56.4691 29.9288 54.7432 27.7333 51.7864 27.094C51.4968 27.0337 51.2071 26.9854 50.9175 26.9492C51.1709 26.9854 51.4244 27.0337 51.6778 27.0819C54.6346 27.7213 56.3604 29.9168 56.9759 32.7516C57.4587 34.9953 56.3966 37.0943 55.4915 39.1089C55.4432 39.2174 55.395 39.326 55.3467 39.4225C55.3346 39.4587 55.3105 39.4949 55.2984 39.5311C55.2984 39.5311 55.2984 39.5432 55.2984 39.5552C55.2984 39.5673 55.2863 39.5914 55.2743 39.6035C55.2622 39.6397 55.2381 39.6758 55.226 39.712C55.2019 39.7724 55.1777 39.8206 55.1536 39.8809C55.1053 39.9895 55.045 40.0981 54.9967 40.2066C54.9605 40.279 54.9243 40.3634 54.8881 40.4358C54.8398 40.5444 54.7794 40.653 54.7312 40.7615C54.6588 40.9063 54.5984 41.039 54.526 41.1717C54.4777 41.2561 54.4415 41.3406 54.3933 41.4371C54.3933 41.4371 54.3933 41.4612 54.3812 41.4733C54.3691 41.5094 54.345 41.5336 54.3329 41.5698C54.3329 41.5818 54.3208 41.606 54.3088 41.618C54.2967 41.6542 54.2726 41.6904 54.2605 41.7145C54.2605 41.7145 54.2605 41.7386 54.2484 41.7507C54.2484 41.7507 54.2364 41.7748 54.2243 41.7869C54.1639 41.8955 54.1036 42.0161 54.0433 42.1247C53.9588 42.2935 53.8622 42.4624 53.7778 42.6313C53.6691 42.8243 53.5726 43.0173 53.464 43.2104C53.3553 43.4034 53.2467 43.5964 53.1502 43.7894C52.9571 44.1272 52.7761 44.4529 52.583 44.7906C52.583 44.7906 52.583 44.7906 52.583 44.8027C52.4623 45.0078 52.3416 45.2249 52.2209 45.43C52.1847 45.4903 52.1485 45.5506 52.1243 45.5989C51.9554 45.8763 51.7985 46.1658 51.6295 46.4433C51.6295 46.4433 51.6295 46.4674 51.6175 46.4674C51.4485 46.7449 51.2795 47.0344 51.1106 47.3118C51.0864 47.348 51.0744 47.3842 51.0502 47.4083C51.0261 47.4445 51.014 47.4686 50.9899 47.5048C50.9658 47.541 50.9537 47.5651 50.9295 47.6013C50.9054 47.6375 50.8933 47.6737 50.8692 47.7099C50.8571 47.734 50.833 47.7702 50.8209 47.7943C50.7968 47.8305 50.7847 47.8667 50.7606 47.9029C50.7485 47.927 50.7244 47.9632 50.7123 47.9874C50.7002 48.0115 50.6882 48.0356 50.6761 48.0718C50.6761 48.0718 50.6761 48.0718 50.6761 48.0839C50.6761 48.108 50.652 48.1321 50.652 48.1562C50.652 48.1562 50.652 48.1804 50.6399 48.1924C50.6158 48.2407 50.6037 48.301 50.5796 48.3613V48.3854C50.5796 48.4096 50.5675 48.4458 50.5554 48.4699C50.5554 48.5061 50.5433 48.5423 50.5313 48.5785C50.5313 48.6146 50.5313 48.6508 50.5313 48.687C50.483 48.7956 50.4227 48.8921 50.3623 49.0007C50.3503 49.0007 50.3382 49.0248 50.314 49.0369C50.314 49.0369 50.302 49.0489 50.2899 49.061C50.2658 49.061 50.2416 49.061 50.2296 49.073C50.2175 49.073 50.2054 49.1213 50.1934 49.1454C50.1934 49.1454 50.2175 49.1213 50.2296 49.1092C50.2296 49.1213 50.2175 49.1575 50.2054 49.1695C50.2416 49.1454 50.2658 49.1092 50.302 49.0851C50.314 49.0851 50.3261 49.0851 50.3382 49.0851C50.3382 49.073 50.3623 49.0489 50.3623 49.0369C50.4468 48.9645 50.5434 48.9042 50.6278 48.8318C50.6278 48.8318 50.652 48.8197 50.6761 48.8077C50.664 48.7956 50.6399 48.7715 50.6278 48.7594Z" fill="#805C63"/>
<path d="M16.1234 60.8825C15.5199 60.4844 14.9406 60.0622 14.3613 59.6279C14.9286 60.0622 15.5199 60.4844 16.1234 60.8825Z" fill="#805C63"/>
<path d="M13.9878 59.3266C13.5654 59.0009 13.1672 58.6511 12.7568 58.3013C13.1551 58.6511 13.5654 58.9889 13.9878 59.3266Z" fill="#805C63"/>
<path d="M20.1427 63.1748C19.5272 62.8732 18.9117 62.5596 18.3203 62.2339C18.9117 62.5717 19.5272 62.8853 20.1427 63.1748Z" fill="#805C63"/>
<path d="M11.8394 57.4809C11.598 57.2517 11.3445 57.0225 11.1152 56.7812C11.3566 57.0225 11.598 57.2517 11.8394 57.4809Z" fill="#805C63"/>
<path d="M50.7243 26.9127C50.6157 26.9006 50.5071 26.8885 50.3984 26.8765C50.5071 26.8765 50.6157 26.8885 50.7243 26.9127Z" fill="#805C63"/>
<path d="M57.4709 56.2021C56.4812 57.2275 55.4313 58.2046 54.333 59.1094C55.4433 58.2167 56.4812 57.2396 57.4709 56.2021Z" fill="#805C63"/>
<path d="M42.7475 65.0928C42.3493 65.2013 41.9631 65.3099 41.5527 65.4064C41.951 65.3099 42.3493 65.2013 42.7475 65.0928Z" fill="#805C63"/>
<path d="M41.1899 58.7475C41.1899 53.9705 41.214 49.1814 41.214 44.3924L37.8831 47.6615H30.6178L27.1058 44.2114C27.1058 49.0608 27.1299 53.8981 27.1299 58.7475C27.1178 60.8103 27.0816 63.4763 27.1058 65.5391C29.3264 66.0216 31.6436 66.287 34.009 66.287C36.3745 66.287 38.8848 65.9975 41.1899 65.4788C41.2382 63.416 41.1899 60.8103 41.1899 58.7475Z" fill="white"/>
<path d="M53.8505 59.4834C53.5971 59.6885 53.3436 59.8694 53.0781 60.0624C53.3436 59.8694 53.5971 59.6764 53.8505 59.4834Z" fill="#805C63"/>
<path d="M34.022 1.70068C16.1725 1.70068 1.70215 16.1644 1.70215 33.9937C1.70215 42.6672 5.12965 50.5323 10.6933 56.3347V56.2985C10.6933 51.7386 10.6933 47.1788 10.7054 42.631C10.8381 42.7637 10.9588 42.8964 11.0916 43.029C11.345 43.2944 11.5984 43.5598 11.864 43.8252C12.1174 44.0906 12.3829 44.356 12.6364 44.6214C12.8174 44.8023 12.9984 44.9833 13.1794 45.1642C13.276 45.2607 13.3605 45.3452 13.457 45.4417C13.626 45.5985 13.7829 45.7674 13.9518 45.9242C14.2777 46.2378 14.6156 46.5515 14.9535 46.8651C15.1225 47.022 15.2915 47.1667 15.4725 47.3235C15.738 47.5527 16.0035 47.7819 16.269 47.9991C16.4863 48.18 16.7156 48.361 16.9449 48.5298C17.0173 48.5902 17.1018 48.6505 17.1742 48.6987C17.1742 48.6987 17.1742 48.6987 17.1862 48.6987C17.2104 48.7229 17.2345 48.7349 17.2707 48.759C17.2949 48.7711 17.3069 48.7832 17.3311 48.7952C17.3311 48.7952 17.3673 48.8194 17.3914 48.8314C17.488 48.8917 17.5966 48.9521 17.7535 49.0486C17.7535 49.0486 17.7535 49.0244 17.7535 49.0124C17.6569 48.9521 17.5604 48.8917 17.5 48.8556C17.4759 48.8435 17.4517 48.8314 17.4397 48.8194C17.4397 48.8194 17.4035 48.7952 17.3793 48.7832C17.3552 48.7711 17.319 48.747 17.2949 48.7229C17.2949 48.7229 17.2949 48.7229 17.2828 48.7229C17.2828 48.7229 17.2828 48.7229 17.2707 48.7229C17.1983 48.6625 17.1138 48.6143 17.0414 48.554C16.8121 48.373 16.5949 48.2041 16.3656 48.0232C16.1001 47.8061 15.8225 47.5769 15.569 47.3477C15.4001 47.2029 15.2311 47.0461 15.0501 46.8893C14.7122 46.5756 14.3742 46.262 14.0484 45.9483C13.8794 45.7915 13.7225 45.6347 13.5536 45.4658C13.457 45.3693 13.3725 45.2849 13.276 45.1884C13.095 45.0074 12.9139 44.8265 12.7329 44.6455C12.4795 44.3801 12.214 44.1147 11.9605 43.8493C11.7071 43.584 11.4416 43.3186 11.1881 43.0532C11.0554 42.9205 10.9347 42.7878 10.8019 42.6551C10.2468 41.7865 9.67953 40.918 9.12437 40.0495C5.35895 34.1264 6.81926 28.5653 12.9984 25.1997C13.4812 24.9343 14.1087 24.8257 14.4104 24.2829C14.4104 24.2829 14.3984 24.2829 14.3863 24.2708C11.5984 22.0512 10.5968 19.1923 11.526 15.7543C12.3467 12.7505 14.9897 10.6515 18.2121 10.3017C23.8843 9.68649 28.2049 15.513 26.0688 20.869C25.9119 21.2671 25.7308 21.6411 25.5498 22.0271C25.224 22.4493 24.886 22.8353 24.5361 23.1852C24.9102 22.8112 25.2843 22.4011 25.6343 21.9427C31.3307 21.9427 37.0271 21.9427 42.7356 21.9427C41.046 18.191 41.5046 14.8495 44.0631 12.3886C47.0682 9.50554 51.8233 9.52967 54.8042 12.449C57.7852 15.3682 57.918 20.1211 55.0939 23.1852C54.6715 23.6315 54.2129 24.0416 53.7543 24.4639C55.4318 25.2238 57.0128 26.1406 58.3283 27.4435C61.3817 30.4592 62.0213 33.9455 60.2955 37.866C59.5955 39.4584 58.5214 40.8215 57.7007 42.3535C57.6645 42.3897 57.6404 42.4138 57.6042 42.45V42.6068C57.6042 47.1667 57.6042 51.4491 57.6162 56.009C62.9989 50.2428 66.2936 42.4983 66.2936 33.9937C66.2936 16.1523 51.8233 1.70068 33.9858 1.70068H34.022ZM34.1306 18.0945C29.798 18.0945 26.5515 14.7168 26.4912 10.3379C26.4308 6.13992 29.979 2.5451 34.2272 2.59336C38.6202 2.64161 41.9753 6.26056 41.8666 10.4344C41.8666 14.7771 38.4874 18.1066 34.1306 18.0945Z" fill="#FECE63"/>
<path d="M17.9827 62.0286C17.3793 61.6787 16.8 61.3289 16.2207 60.9429C16.8 61.3168 17.3793 61.6787 17.9827 62.0286Z" fill="#805C63"/>
<path d="M55.8174 44.0668C55.9139 43.9944 56.0225 43.922 56.1191 43.8497C56.1191 43.8497 56.1432 43.8255 56.1432 43.8135C56.0346 43.8859 55.926 43.9703 55.8294 44.0427C55.8294 44.0427 55.8295 44.0427 55.8174 44.0427V44.0668Z" fill="#805C63"/>
<path d="M26.7682 65.4669C26.2855 65.3583 25.8027 65.2377 25.332 65.105C25.8148 65.2377 26.2855 65.3583 26.7682 65.4669Z" fill="#805C63"/>
<path d="M57.6397 56.0332C57.6397 56.0332 57.531 56.1418 57.4707 56.2021C57.531 56.1418 57.5914 56.0935 57.6397 56.0332Z" fill="#E83851"/>
<path d="M22.8093 64.2964C22.5317 64.1878 22.2541 64.0793 21.9766 63.9707C22.2541 64.0793 22.5317 64.1999 22.8093 64.2964Z" fill="#E83851"/>
<path d="M25.3325 65.105C25.0428 65.0206 24.7652 64.9482 24.4756 64.8638C24.7532 64.9482 25.0428 65.0327 25.3325 65.105Z" fill="#E83851"/>
<path d="M27.1065 65.5512C26.9979 65.515 26.8772 65.4909 26.7686 65.4668C26.8772 65.4909 26.9979 65.5271 27.1065 65.5512Z" fill="#E83851"/>
<path d="M41.1904 65.491C41.3111 65.4669 41.4197 65.4307 41.5404 65.3945C41.4197 65.4187 41.3111 65.4428 41.1904 65.479V65.491Z" fill="#E83851"/>
<path d="M53.0899 60.0625C50.0124 62.3183 46.5125 64.0313 42.7471 65.0928C46.7418 64.0192 50.121 62.2821 53.0899 60.0625Z" fill="#E83851"/>
<path d="M20.7222 63.4402C20.5291 63.3558 20.324 63.2713 20.1309 63.1748C20.324 63.2713 20.5171 63.3558 20.7222 63.4402Z" fill="#E83851"/>
<path d="M10.6924 56.3711C10.8251 56.5159 10.982 56.6365 11.1148 56.7813C10.97 56.6365 10.8372 56.4797 10.6924 56.335V56.3711Z" fill="#E83851"/>
<path d="M12.7561 58.3133C12.4423 58.0359 12.1406 57.7705 11.8389 57.481C12.1406 57.7584 12.4423 58.0359 12.7561 58.3133Z" fill="#E83851"/>
<path d="M16.2077 60.944C16.2077 60.944 16.1475 60.9073 16.1113 60.8828C16.1475 60.9073 16.1716 60.9195 16.2077 60.944Z" fill="#E83851"/>
<path d="M14.3614 59.6282C14.2287 59.5317 14.108 59.4352 13.9873 59.3267C14.108 59.4232 14.2407 59.5197 14.3614 59.6282Z" fill="#E83851"/>
<path d="M57.628 42.4621C57.2539 42.824 56.8677 43.1738 56.5177 43.5599C56.397 43.6443 56.2763 43.7408 56.1556 43.8253C56.1556 43.8253 56.1315 43.8494 56.1315 43.8614C56.2522 43.777 56.3849 43.6805 56.5056 43.5961C56.4815 43.6202 56.4694 43.6443 56.4453 43.6684C54.7436 45.6347 52.873 47.3839 50.7489 48.8797C50.7489 48.8797 50.7368 48.8677 50.7247 48.8556L50.7006 48.8315C50.6885 48.8315 50.6765 48.8556 50.6523 48.8677C50.5679 48.928 50.4713 49.0003 50.3868 49.0607C50.3868 49.0727 50.3627 49.0969 50.3627 49.1089C50.3506 49.1089 50.3386 49.1089 50.3265 49.1089C50.2903 49.133 50.2661 49.1692 50.2299 49.1934C50.2299 49.1692 50.2299 49.1451 50.2541 49.133C50.2541 49.133 50.2299 49.1572 50.2179 49.1692C50.2179 49.1451 50.2299 49.1089 50.2541 49.0969C50.2782 49.0969 50.2903 49.0848 50.3144 49.0848C50.3144 49.0848 50.3265 49.0727 50.3386 49.0607C50.3506 49.0607 50.3748 49.0365 50.3868 49.0245C50.4472 48.9159 50.4954 48.8194 50.5558 48.7108C50.5558 48.7108 50.5558 48.6385 50.5558 48.6023C50.5558 48.5661 50.5558 48.5299 50.5799 48.4937C50.5799 48.4696 50.5799 48.4334 50.6041 48.4093V48.3851C50.6161 48.3248 50.6403 48.2766 50.6644 48.2162C50.6644 48.2162 50.6644 48.1921 50.6765 48.1801C50.6765 48.1559 50.7006 48.1318 50.7006 48.1077C50.7006 48.1077 50.7006 48.1077 50.7006 48.0956C50.7127 48.0715 50.7248 48.0353 50.7368 48.0112C50.7489 47.975 50.773 47.9509 50.7851 47.9267C50.7972 47.8905 50.8213 47.8543 50.8454 47.8182C50.8575 47.794 50.8816 47.7578 50.8937 47.7337C50.9178 47.6975 50.942 47.6613 50.9541 47.6251C50.9782 47.589 50.9903 47.5648 51.0144 47.5286C51.0385 47.4925 51.0506 47.4683 51.0747 47.4321C51.0989 47.3959 51.1109 47.3598 51.1351 47.3356C51.304 47.0582 51.473 46.7687 51.642 46.4912C51.642 46.4912 51.642 46.4791 51.654 46.4671C51.823 46.1896 51.9799 45.9122 52.1488 45.6227C52.1851 45.5623 52.2213 45.502 52.2454 45.4538C52.3661 45.2487 52.4868 45.0316 52.6075 44.8265C52.6075 44.8265 52.6075 44.8265 52.6075 44.8144C52.8006 44.4767 52.9816 44.151 53.1747 43.8132C53.2833 43.6202 53.3919 43.4272 53.4885 43.2342C53.5971 43.0411 53.6936 42.8481 53.8023 42.6551C53.8867 42.4862 53.9833 42.3174 54.0678 42.1485C54.1281 42.0399 54.1885 41.9193 54.2488 41.8107C54.2488 41.8107 54.2609 41.7866 54.2729 41.7745C54.2729 41.7745 54.2729 41.7504 54.285 41.7383C54.2971 41.7021 54.3212 41.666 54.3333 41.6418C54.3333 41.6298 54.3453 41.6056 54.3574 41.5936C54.3695 41.5574 54.3936 41.5333 54.4057 41.4971C54.4057 41.4971 54.4057 41.4729 54.4178 41.4609C54.466 41.3764 54.5022 41.292 54.5505 41.1955C54.6229 41.0628 54.6833 40.918 54.7557 40.7853C54.804 40.6768 54.8643 40.5682 54.9126 40.4596C54.9488 40.3873 54.985 40.3028 55.0212 40.2304C55.0695 40.1219 55.1298 40.0133 55.1781 39.9047C55.2022 39.8565 55.2264 39.7962 55.2505 39.7358C55.2626 39.6997 55.2867 39.6635 55.2988 39.6273C55.2988 39.6152 55.3108 39.5911 55.3229 39.579C55.3229 39.579 55.3229 39.567 55.3229 39.5549C55.335 39.5187 55.3591 39.4825 55.3712 39.4463C55.4195 39.3378 55.4677 39.2292 55.516 39.1327C56.4212 37.1181 57.4832 35.0071 57.0005 32.7754C56.3849 29.9406 54.6591 27.7451 51.7023 27.1057C51.4489 27.0454 51.1954 27.0092 50.942 26.973C50.8575 26.973 50.773 26.9368 50.7006 26.9368C50.592 26.9248 50.4834 26.9127 50.3748 26.9006C50.061 26.8645 49.7472 26.8403 49.4455 26.8403C49.4334 26.8403 49.4093 26.8403 49.3972 26.8403C47.0679 26.8403 44.9559 27.6848 43.3387 29.832C43.3146 29.8682 43.2905 29.9044 43.2663 29.9406C43.2422 29.9768 43.218 30.0129 43.1939 30.0491C43.1456 30.1094 43.1094 30.1698 43.0612 30.2301C43.0612 30.2421 43.037 30.2542 43.037 30.2783C43.0008 30.3386 42.9646 30.3869 42.9284 30.4472C42.9043 30.4955 42.8681 30.5317 42.8439 30.5799C42.8198 30.6161 42.7956 30.6644 42.7715 30.7005C42.7715 30.7126 42.7474 30.7367 42.7353 30.7488C42.7112 30.797 42.675 30.8453 42.6508 30.8936C42.6146 30.9539 42.5784 31.0142 42.5543 31.0745C42.5301 31.1228 42.506 31.171 42.4819 31.2193C42.4577 31.2675 42.4336 31.3158 42.4094 31.364C42.3853 31.4123 42.3612 31.4726 42.325 31.5208L42.2767 31.6294C42.2405 31.7138 42.2043 31.7983 42.156 31.8827C41.6008 33.1735 41.3233 34.5608 41.3233 36.0445C41.3233 36.4667 41.3233 36.8769 41.3233 37.2991L34.3476 44.151L34.2872 44.0906L34.251 44.1268L27.1064 37.1061C27.1064 36.8889 27.1064 36.6597 27.1064 36.4426C27.1064 35.3087 26.9736 34.223 26.6961 33.1614C26.6961 33.1614 26.6961 33.1373 26.6961 33.1252C26.6961 33.1252 26.6961 33.1011 26.6961 33.089C26.6961 33.0529 26.684 33.0287 26.6719 32.9925C26.6598 32.9443 26.6357 32.884 26.6236 32.8357C26.5995 32.7392 26.5633 32.6427 26.5392 32.5462C26.5392 32.5462 26.5392 32.5221 26.5392 32.51C26.5271 32.4618 26.515 32.4256 26.4909 32.3773C26.4667 32.317 26.4547 32.2688 26.4305 32.2084C26.4185 32.1602 26.3943 32.0999 26.3702 32.0516C26.3461 32.0034 26.334 31.943 26.3099 31.8948C25.8271 30.6523 25.1754 29.651 24.403 28.879C24.2702 28.7463 24.1254 28.6136 23.9927 28.493C23.9203 28.4327 23.8478 28.3724 23.7754 28.312C23.6306 28.2035 23.4737 28.0949 23.3289 27.9863C23.2565 27.9381 23.172 27.8898 23.0996 27.8416C22.9789 27.7692 22.8703 27.7089 22.7496 27.6365C22.6651 27.6003 22.5927 27.5521 22.5082 27.5159C22.3875 27.4556 22.2669 27.4073 22.1341 27.359C22.0134 27.3108 21.8807 27.2625 21.7479 27.2143C21.6996 27.2022 21.6634 27.1902 21.6151 27.1781C21.5548 27.154 21.4824 27.1419 21.422 27.1178C21.3617 27.0937 21.2893 27.0816 21.2289 27.0695C21.1686 27.0575 21.1203 27.0454 21.06 27.0333C21.0117 27.0333 20.9755 27.0092 20.9272 27.0092C20.8548 26.9972 20.7824 26.9851 20.6979 26.973C20.6497 26.973 20.5893 26.961 20.541 26.9489C20.3962 26.9248 20.2514 26.9127 20.1066 26.9006C20.0342 26.9006 19.9497 26.9006 19.8773 26.8886H19.8531C19.8411 26.8886 19.829 26.8886 19.8048 26.8886C18.6342 26.8283 17.4032 27.0213 16.148 27.4314C15.6894 27.5882 15.255 27.7813 14.8446 28.0225C14.7843 28.0587 14.7239 28.0949 14.6757 28.1311C14.6153 28.1673 14.5429 28.2155 14.4826 28.2517C14.386 28.312 14.3015 28.3724 14.2171 28.4447C14.0843 28.5412 13.9636 28.6377 13.8309 28.7463C13.6981 28.8549 13.5654 28.9755 13.4447 29.0961C13.324 29.2168 13.2033 29.3495 13.0947 29.4701C13.0705 29.5063 13.0343 29.5304 13.0102 29.5666C12.974 29.6149 12.9378 29.6631 12.9016 29.6993C12.8533 29.7596 12.8171 29.8079 12.7688 29.8682C12.7085 29.9526 12.6361 30.0491 12.5757 30.1336C12.2137 30.6764 11.924 31.2675 11.7068 31.8948C11.6706 32.0034 11.6464 32.0999 11.6102 32.2084C11.3447 33.1614 11.2482 34.1747 11.3689 35.2122C11.3809 35.3449 11.4051 35.4655 11.4171 35.5982C11.4413 35.7429 11.4654 35.8877 11.5016 36.0325C11.5257 36.141 11.5499 36.2617 11.5861 36.3702C11.6464 36.5994 11.7188 36.8286 11.8033 37.0578C12.0447 37.7213 12.3102 38.3727 12.5878 39.0121C12.6723 39.2051 12.7568 39.386 12.8412 39.579C12.9378 39.7962 13.0464 40.0254 13.155 40.2425C13.2516 40.4476 13.3481 40.6526 13.4567 40.8577C13.5533 41.0628 13.6619 41.2679 13.7705 41.4609C13.9878 41.8831 14.205 42.2932 14.4343 42.7154C14.6395 43.0894 14.8446 43.4634 15.0498 43.8373C15.0619 43.8735 15.086 43.8976 15.0981 43.9338C15.3756 44.4284 15.6532 44.9109 15.9308 45.4055C16.2084 45.8881 16.498 46.3826 16.7756 46.8772C16.7998 46.9134 16.8239 46.9617 16.848 46.9979C17.0291 47.2874 17.2222 47.5648 17.4032 47.8785C17.4273 47.9267 17.4515 47.9629 17.4756 48.0112C17.5239 48.1077 17.5721 48.2042 17.6204 48.3007C17.6446 48.3489 17.6687 48.3972 17.6808 48.4454C17.7049 48.4937 17.717 48.554 17.7411 48.6023C17.7652 48.6867 17.7894 48.7711 17.8135 48.8556C17.8377 48.94 17.8497 49.0365 17.8739 49.121C17.8256 49.0969 17.8014 49.0848 17.7652 49.0607C17.7652 49.0727 17.7652 49.0848 17.7652 49.0969C17.6084 49.0003 17.4877 48.928 17.4032 48.8797C17.379 48.8677 17.3549 48.8556 17.3428 48.8435C17.3428 48.8435 17.3066 48.8194 17.2825 48.8073C17.2584 48.7953 17.2222 48.7711 17.198 48.747C17.198 48.747 17.198 48.747 17.1859 48.747C17.1135 48.6867 17.0291 48.6264 16.9566 48.5781C16.7273 48.3972 16.5101 48.2283 16.2808 48.0474C16.0153 47.8302 15.7377 47.601 15.4843 47.3718C15.3153 47.2271 15.1463 47.0702 14.9653 46.9134C14.6274 46.6118 14.2895 46.2982 13.9636 45.9725C13.7947 45.8157 13.6378 45.6589 13.4688 45.49C13.3723 45.3935 13.2878 45.309 13.1912 45.2125C13.0102 45.0316 12.8292 44.8506 12.6481 44.6697C12.3826 44.4043 12.1292 44.1389 11.8757 43.8735C11.6223 43.6081 11.3568 43.3427 11.1033 43.0773C10.9706 42.9446 10.8499 42.812 10.7171 42.6793C10.7171 47.2391 10.7171 51.799 10.7051 56.3468V56.383C10.8499 56.5278 10.9827 56.6846 11.1275 56.8293C11.3689 57.0706 11.6102 57.2998 11.8516 57.529C12.1533 57.8064 12.455 58.0839 12.7688 58.3614C13.1671 58.7112 13.5774 59.049 13.9998 59.3867C14.1205 59.4832 14.2533 59.5797 14.374 59.6883C14.9412 60.1226 15.5325 60.5448 16.136 60.9429C16.1722 60.967 16.1963 60.9791 16.2325 61.0032C16.8118 61.3771 17.3911 61.739 17.9945 62.0889C18.1032 62.1492 18.2239 62.2216 18.3325 62.2819C18.9238 62.6197 19.5393 62.9333 20.1548 63.2228C20.3479 63.3193 20.541 63.4038 20.7462 63.4882C21.1565 63.6812 21.5789 63.8501 22.0013 64.019C22.2789 64.1275 22.5565 64.2482 22.8341 64.3447C23.3772 64.5498 23.9323 64.7307 24.4875 64.9117C24.7651 64.9961 25.0547 65.0805 25.3444 65.1529C25.8271 65.2856 26.2978 65.4062 26.7805 65.5148C26.8891 65.5389 27.0098 65.5631 27.1185 65.5993C27.0943 63.5365 27.1305 60.8705 27.1426 58.8077C27.1426 53.9583 27.1185 49.121 27.1185 44.2716L30.6304 47.7217H37.8958L41.2267 44.4405C41.2267 49.2175 41.2026 54.0066 41.2026 58.7956C41.2026 60.8584 41.2509 63.4641 41.2026 65.5269C41.3233 65.5027 41.4319 65.4786 41.5526 65.4424C41.9629 65.3459 42.3491 65.2374 42.7474 65.1288C46.5249 64.0672 50.0127 62.3543 53.0902 60.0985C53.3436 59.9054 53.6092 59.7124 53.8626 59.5194C54.0195 59.3988 54.1885 59.2661 54.3453 59.1334C55.4436 58.2287 56.4815 57.2515 57.4832 56.2262C57.5435 56.1659 57.5918 56.1055 57.6522 56.0452C57.6522 51.4854 57.6522 47.2029 57.6401 42.6431V42.4862L57.628 42.4621Z" fill="#E6302D"/>
<path d="M48.9021 25.622C50.6762 25.7909 52.221 25.1515 53.7657 24.4639C54.2123 24.0417 54.683 23.6436 55.1054 23.1852C57.9294 20.1212 57.7967 15.3804 54.8157 12.449C51.8348 9.52972 47.0918 9.49353 44.0746 12.3887C41.5161 14.8496 41.0454 18.1911 42.7471 21.9427H42.8677C44.3522 24.0417 46.2711 25.3807 48.9021 25.622Z" fill="#E6302D"/>
<path d="M16.2084 25.0912C19.2738 26.2734 22.11 25.5978 24.5478 23.1852C24.8978 22.8354 25.2357 22.4494 25.5616 22.0272C25.7306 21.6411 25.9237 21.2672 26.0805 20.8691C28.2167 15.501 23.8841 9.68655 18.2239 10.3018C15.0015 10.6516 12.3585 12.7385 11.5378 15.7543C10.5965 19.1923 11.6102 22.0513 14.3981 24.2709C14.3981 24.2709 14.4102 24.2709 14.4222 24.283C14.4464 24.2468 14.4705 24.2226 14.4826 24.1865C15.0498 24.488 15.605 24.862 16.2084 25.0912Z" fill="#E6302D"/>
<path d="M34.2143 2.59374C29.9541 2.54549 26.418 6.14031 26.4783 10.3383C26.5386 14.7172 29.7851 18.0828 34.1178 18.0949C38.4745 18.0949 41.8417 14.7655 41.8538 10.4348C41.9624 6.26094 38.6194 2.64199 34.2143 2.59374Z" fill="white"/>
<path d="M17.7168 48.8074C17.6926 48.723 17.6685 48.6385 17.6444 48.5541C17.6202 48.4938 17.6082 48.4455 17.584 48.3973C17.5599 48.349 17.5478 48.3007 17.5237 48.2525C17.4754 48.156 17.4271 48.0474 17.3789 47.9509C17.3547 47.9027 17.3306 47.8665 17.3064 47.8182C17.1254 47.5046 16.9202 47.2271 16.7513 46.9376C16.7272 46.9014 16.703 46.8532 16.6789 46.817C16.4013 46.3345 16.1116 45.8399 15.8341 45.3453C15.5565 44.8628 15.2789 44.3682 15.0013 43.8736C14.9893 43.8374 14.9651 43.8133 14.9531 43.7771C14.7479 43.4031 14.5307 43.0292 14.3376 42.6552C14.1083 42.245 13.891 41.8228 13.6738 41.4006C13.5652 41.1956 13.4686 40.9905 13.36 40.7975C13.2634 40.5924 13.1548 40.3873 13.0583 40.1822C12.9497 39.9651 12.8531 39.748 12.7445 39.5188C12.66 39.3258 12.5755 39.1448 12.4911 38.9518C12.2135 38.3125 11.948 37.661 11.7066 36.9976C11.6221 36.7684 11.5497 36.5392 11.4894 36.31C11.4652 36.2014 11.429 36.0808 11.4049 35.9722C11.3687 35.8274 11.3445 35.6827 11.3204 35.5379C11.2963 35.4052 11.2842 35.2846 11.2721 35.1519C11.1514 34.1265 11.2359 33.1012 11.5135 32.1482C11.5376 32.0396 11.5738 31.931 11.61 31.8345C11.8152 31.2073 12.1049 30.6162 12.479 30.0733C12.5393 29.9889 12.5997 29.8924 12.6721 29.8079C12.6721 29.8079 12.7566 29.6994 12.8048 29.639C12.841 29.5908 12.8772 29.5425 12.9135 29.5064C12.9376 29.4702 12.9738 29.434 12.9979 29.4098C13.1066 29.2772 13.2272 29.1565 13.3479 29.0359C13.4686 28.9153 13.6014 28.7946 13.7341 28.6861C13.8307 28.6016 13.9272 28.5292 14.0238 28.4569C14.06 28.4327 14.0841 28.4086 14.1203 28.3845C14.2048 28.3242 14.3014 28.2518 14.3858 28.1915C14.4462 28.1553 14.5065 28.107 14.5789 28.0708C15.0255 27.7934 15.5203 27.5642 16.0513 27.3832C17.3668 26.949 18.6581 26.7801 19.8771 26.8645C19.9495 26.8645 20.0219 26.8645 20.0943 26.8766C20.0943 26.8766 20.0943 26.8766 20.1064 26.8766C20.215 26.8766 20.3357 26.8766 20.4443 26.9007C20.4926 26.9007 20.5529 26.9128 20.6012 26.9248C20.6736 26.9248 20.746 26.949 20.8305 26.961C20.8788 26.961 20.915 26.9852 20.9633 26.9852C21.0477 27.0093 21.1443 27.0213 21.2288 27.0455C21.265 27.0455 21.2891 27.0575 21.3253 27.0696C21.3857 27.0817 21.4581 27.1058 21.5184 27.1179C21.5788 27.142 21.6512 27.154 21.7115 27.1782C21.7598 27.1902 21.796 27.2023 21.8443 27.2144C21.977 27.2626 22.0977 27.3109 22.2305 27.3591C22.3511 27.4074 22.4839 27.4677 22.6046 27.5159C22.6891 27.5521 22.7735 27.6004 22.846 27.6366C22.9666 27.6969 23.0873 27.7693 23.196 27.8416C23.2684 27.8899 23.3528 27.9381 23.4253 27.9864C23.5821 28.095 23.727 28.1915 23.8718 28.3121C23.9442 28.3724 24.0166 28.4327 24.089 28.4931C24.2339 28.6137 24.3666 28.7464 24.4994 28.8791C25.2718 29.6511 25.9235 30.6524 26.4062 31.8949C26.4304 31.9431 26.4424 32.0034 26.4666 32.0517C26.4907 32.0999 26.5028 32.1603 26.5269 32.2085C26.551 32.2688 26.5631 32.3171 26.5872 32.3774C26.5993 32.4256 26.6114 32.4618 26.6355 32.5101C26.6355 32.5221 26.6355 32.5342 26.6355 32.5463C26.6717 32.6428 26.6959 32.7393 26.72 32.8358C26.7321 32.884 26.7562 32.9444 26.7683 32.9926C26.7803 33.0409 26.7924 33.1012 26.8165 33.1494C27.0941 34.211 27.2269 35.3087 27.2269 36.4306C27.2269 36.6477 27.2269 36.8769 27.2269 37.0941L34.3112 44.0545L34.3595 44.0063L41.2507 37.2388C41.2507 36.8166 41.2507 36.4065 41.2507 35.9843C41.2507 34.5126 41.5282 33.1132 42.0834 31.8225C42.1196 31.738 42.1558 31.6536 42.2041 31.5692L42.2524 31.4606C42.2524 31.4606 42.3006 31.352 42.3368 31.3038C42.361 31.2555 42.3851 31.2073 42.4093 31.159C42.4334 31.1108 42.4575 31.0625 42.4817 31.0142C42.5179 30.9539 42.5541 30.8936 42.5782 30.8333C42.6024 30.785 42.6386 30.7368 42.6627 30.6885C42.6627 30.6765 42.6868 30.6524 42.6989 30.6403C42.723 30.6041 42.7472 30.5558 42.7713 30.5197C42.7955 30.4714 42.8317 30.4352 42.8558 30.387C42.892 30.3267 42.9282 30.2784 42.9644 30.2181C42.9644 30.206 42.9886 30.1819 43.0006 30.1698C43.0368 30.1095 43.0851 30.0492 43.1334 29.9889C43.1575 29.9527 43.1816 29.9165 43.2058 29.8803C43.2299 29.8562 43.2541 29.82 43.2782 29.7959C43.6885 29.253 44.1351 28.7826 44.6058 28.3965C46.0178 27.2505 47.6712 26.7921 49.4332 26.8163C49.4453 26.8163 49.4694 26.8163 49.4815 26.8163C49.7953 26.8163 50.097 26.8404 50.4108 26.8766C50.5194 26.8766 50.628 26.8887 50.7366 26.9128C50.8211 26.9128 50.8935 26.9369 50.978 26.949C51.2677 26.9972 51.5573 27.0334 51.8469 27.0937C54.8158 27.7331 56.5296 29.9286 57.1451 32.7634C57.6278 35.0072 56.5658 37.1061 55.6606 39.1207C55.6124 39.2172 55.5762 39.3137 55.5279 39.4102C55.5279 39.4223 55.5158 39.4343 55.5038 39.4464C55.4917 39.4826 55.4675 39.5188 55.4555 39.555C55.4555 39.555 55.4555 39.567 55.4555 39.5791C55.4555 39.5912 55.4434 39.6153 55.4313 39.6273C55.4193 39.6635 55.3951 39.6997 55.3831 39.7359C55.3589 39.7962 55.3348 39.8445 55.3107 39.9048C55.3107 39.9048 55.3107 39.9169 55.3107 39.9289C55.2382 40.0737 55.1658 40.2184 55.0934 40.3753C55.0813 40.4114 55.0693 40.4356 55.0451 40.4718C54.9969 40.5803 54.9365 40.6889 54.8882 40.7975C54.8158 40.9422 54.7555 41.0749 54.6831 41.2076C54.6589 41.2679 54.6227 41.3162 54.5986 41.3765C54.5745 41.4127 54.5624 41.4609 54.5383 41.4971C54.5141 41.5454 54.49 41.5936 54.4658 41.6419C54.4538 41.6781 54.4296 41.7143 54.4176 41.7384C54.4176 41.7384 54.4176 41.7625 54.4055 41.7746C54.4055 41.7746 54.3934 41.7987 54.3814 41.8108C54.3331 41.9193 54.2727 42.0158 54.2124 42.1244C54.2124 42.1244 54.2124 42.1365 54.2003 42.1485C54.1521 42.233 54.1159 42.3174 54.0676 42.4019C54.0193 42.4863 53.9831 42.5708 53.9348 42.6552C53.8262 42.8482 53.7297 43.0412 53.621 43.2342C53.5124 43.4272 53.4038 43.6202 53.3073 43.8133C53.1142 44.151 52.9331 44.4767 52.74 44.8145C52.74 44.8145 52.74 44.8145 52.74 44.8266C52.6193 45.0316 52.4987 45.2488 52.378 45.4538C52.3418 45.5142 52.3056 45.5745 52.2814 45.6227C52.1125 45.9002 51.9556 46.1897 51.7866 46.4672C51.7866 46.4672 51.7866 46.4913 51.7745 46.4913C51.6056 46.7687 51.4366 47.0582 51.2677 47.3357C51.2435 47.3719 51.2314 47.4081 51.2073 47.4322C51.1832 47.4684 51.1711 47.4925 51.147 47.5287C51.1228 47.5649 51.1108 47.589 51.0866 47.6252C51.0625 47.6614 51.0504 47.6976 51.0263 47.7338C51.0142 47.7579 50.9901 47.7941 50.978 47.8182C50.9539 47.8544 50.9418 47.8906 50.9177 47.9268C50.9056 47.9509 50.8815 47.9871 50.8694 48.0112C50.8573 48.0354 50.8452 48.0595 50.8332 48.0957C50.8332 48.0957 50.8332 48.0957 50.8332 48.1077C50.8332 48.1319 50.809 48.156 50.809 48.1801C50.809 48.1801 50.809 48.2042 50.797 48.2163C50.7728 48.2646 50.7608 48.3249 50.7366 48.3852V48.4093C50.7366 48.4334 50.7246 48.4696 50.7125 48.4938C50.7125 48.53 50.7004 48.5661 50.6884 48.6023C50.6763 48.6385 50.6884 48.6747 50.6884 48.7109C50.6884 48.723 50.6884 48.735 50.6884 48.7591C50.6884 48.7591 50.7246 48.7953 50.7366 48.8074C51.0263 48.6023 51.3039 48.3973 51.5814 48.1922C51.678 48.1198 51.7745 48.0474 51.8711 47.975C53.44 46.7446 54.8641 45.3573 56.1917 43.8615C56.0951 43.9339 55.9986 44.0063 55.8899 44.0786C55.8899 44.0786 55.8899 44.0786 55.902 44.0786C56.0106 44.0063 56.1193 43.9218 56.2158 43.8494C56.2761 43.7891 56.3365 43.7288 56.3968 43.6564C56.421 43.6323 56.433 43.6082 56.4572 43.5841C56.4572 43.5841 56.4572 43.5841 56.4692 43.572C56.8434 43.1618 57.2658 42.7879 57.664 42.3898V42.5225C57.664 42.5225 57.7244 42.4622 57.7606 42.426C58.5692 40.906 59.6554 39.5429 60.3553 37.9385C62.0812 34.018 61.4415 30.5317 58.3882 27.5159C57.0606 26.2131 55.4917 25.2963 53.8141 24.5363C53.79 24.5605 53.7538 24.5846 53.7297 24.6208C52.1728 25.3084 50.6401 25.9357 48.866 25.7788C46.235 25.5376 44.304 24.1986 42.8317 22.0996C42.8196 22.0755 42.8075 22.0513 42.7955 22.0151C37.099 22.0151 31.4026 22.0151 25.6942 22.0151C25.3321 22.4735 24.97 22.8837 24.5959 23.2576C22.1339 25.7427 19.2616 26.4423 16.172 25.2481C15.5806 25.0189 15.0375 24.657 14.4703 24.3554C14.1686 24.8982 13.5531 25.0068 13.0583 25.2722C6.87913 28.6378 5.41882 34.1989 9.18424 40.1219C9.7394 40.9905 10.2946 41.859 10.8618 42.7276C10.9945 42.8603 11.1152 42.993 11.248 43.1257C11.5014 43.391 11.7549 43.6564 12.0204 43.9218C12.2738 44.1872 12.5393 44.4526 12.7928 44.718C12.9738 44.8989 13.1548 45.0799 13.3359 45.2608C13.4324 45.3573 13.5169 45.4418 13.6134 45.5383C13.7824 45.6951 13.9393 45.864 14.1083 46.0208C14.4341 46.3345 14.772 46.6481 15.11 46.9617C15.2789 47.1186 15.4479 47.2633 15.6289 47.4201C15.8944 47.6493 16.1599 47.8785 16.4254 48.0957C16.6427 48.2766 16.872 48.4576 17.1013 48.6265C17.1737 48.6868 17.2582 48.735 17.3306 48.7953C17.3306 48.7953 17.3306 48.7953 17.3427 48.7953C17.3427 48.7953 17.3427 48.7953 17.3547 48.7953C17.3789 48.8195 17.403 48.8315 17.4392 48.8557C17.4633 48.8677 17.4754 48.8798 17.4995 48.8918C17.4995 48.8918 17.5478 48.916 17.5599 48.928C17.6202 48.9642 17.7168 49.0245 17.8133 49.0849C17.8133 49.0487 17.8013 49.0125 17.7892 48.9642C17.7892 48.928 17.7651 48.8918 17.7651 48.8557L17.7168 48.8074Z" fill="white"/>
<path d="M50.399 26.8889C50.0852 26.8527 49.7714 26.8407 49.4697 26.8286C49.7714 26.8286 50.0852 26.8527 50.399 26.8889Z" fill="white"/>
<path d="M51.8112 47.9753C51.7147 48.0477 51.6181 48.1201 51.5216 48.1925C51.244 48.3975 50.9664 48.6026 50.6768 48.8077L50.7009 48.8318C50.7009 48.8318 50.713 48.8439 50.725 48.8559C52.8491 47.3722 54.7318 45.6109 56.4214 43.6446C56.4456 43.6205 56.4576 43.5964 56.4818 43.5723C56.3611 43.6567 56.2404 43.7532 56.1077 43.8377C54.7922 45.3456 53.3681 46.7328 51.7871 47.9512L51.8112 47.9753Z" fill="white"/>
<path d="M50.966 26.961C50.8815 26.9489 50.797 26.9248 50.7246 26.9248C50.8091 26.9248 50.8815 26.9489 50.966 26.961Z" fill="white"/>
<path d="M17.8133 48.8318C17.7891 48.7474 17.765 48.6629 17.7409 48.5785C17.7167 48.5182 17.7047 48.4699 17.6805 48.4217C17.6564 48.3734 17.6323 48.3252 17.6202 48.2769C17.5719 48.1804 17.5236 48.0718 17.4754 47.9874C17.4512 47.9391 17.4271 47.9029 17.403 47.8547C17.2219 47.5411 17.0168 47.2636 16.8478 46.9741C16.8237 46.9379 16.7995 46.8896 16.7754 46.8535C16.4978 46.3709 16.2082 45.8763 15.9306 45.3817C15.653 44.8992 15.3754 44.4046 15.0978 43.91C15.0858 43.8739 15.0616 43.8497 15.0496 43.8135C14.8444 43.4396 14.6272 43.0656 14.4341 42.6917C14.2048 42.2815 13.9875 41.8593 13.7703 41.4371C13.6617 41.232 13.5651 41.0269 13.4565 40.8339C13.36 40.6289 13.2513 40.4238 13.1548 40.2187C13.0462 40.0016 12.9496 39.7844 12.841 39.5552C12.7565 39.3743 12.672 39.1813 12.5876 38.9883C12.31 38.3489 12.0445 37.6975 11.8031 37.034C11.7186 36.8048 11.6462 36.5756 11.5859 36.3464C11.5617 36.2379 11.5255 36.1172 11.5014 36.0087C11.4652 35.8639 11.441 35.7192 11.4169 35.5744C11.3928 35.4417 11.3807 35.3211 11.3686 35.1884C11.2479 34.163 11.3324 33.1376 11.61 32.1847C11.6462 32.0761 11.6703 31.9675 11.7065 31.871C11.9117 31.2437 12.2014 30.6526 12.5755 30.1098C12.6358 30.0253 12.6962 29.9288 12.7686 29.8444C12.7686 29.8444 12.8531 29.7358 12.9013 29.6755C12.9375 29.6273 12.9738 29.579 13.01 29.5428C13.0341 29.5066 13.0703 29.4704 13.0944 29.4463C13.2031 29.3136 13.3237 29.193 13.4444 29.0724C13.5651 28.9517 13.6979 28.8311 13.8306 28.7225C13.9513 28.614 14.0841 28.5175 14.2168 28.421C14.3013 28.3606 14.3979 28.2883 14.4823 28.2279C14.5427 28.1918 14.603 28.1435 14.6754 28.1073C14.7358 28.0711 14.7841 28.0349 14.8444 27.9987C15.2427 27.7575 15.6771 27.5645 16.1478 27.4076C17.403 26.9975 18.634 26.8045 19.8046 26.8648C19.8167 26.8648 19.8288 26.8648 19.8529 26.8648H19.877C18.6581 26.7804 17.3667 26.9492 16.0513 27.3835C15.5202 27.5645 15.0375 27.7937 14.5789 28.0711C14.5185 28.1073 14.4461 28.1556 14.3858 28.1918C14.2892 28.2521 14.2048 28.3124 14.1203 28.3848C14.0841 28.4089 14.0599 28.433 14.0237 28.4571C13.9272 28.5295 13.8306 28.6019 13.7341 28.6863C13.6013 28.7949 13.4806 28.9155 13.3479 29.0362C13.2272 29.1568 13.1065 29.2895 12.9979 29.4101C12.9738 29.4463 12.9375 29.4704 12.9134 29.5066C12.8772 29.5549 12.841 29.6031 12.8048 29.6393C12.7565 29.6996 12.7203 29.7479 12.672 29.8082C12.6117 29.8927 12.5393 29.9892 12.4789 30.0736C12.1169 30.6164 11.8272 31.2075 11.61 31.8348C11.5738 31.9434 11.5376 32.0399 11.5134 32.1485C11.2479 33.1015 11.1514 34.1148 11.2721 35.1522C11.2841 35.2849 11.3083 35.4055 11.3203 35.5382C11.3445 35.683 11.3686 35.8277 11.4048 35.9725C11.429 36.0811 11.4531 36.2017 11.4893 36.3103C11.5497 36.5395 11.6221 36.7687 11.7065 36.9979C11.9479 37.6613 12.2134 38.3127 12.491 38.9521C12.5755 39.1451 12.66 39.326 12.7445 39.5191C12.841 39.7362 12.9496 39.9654 13.0582 40.1825C13.1548 40.3876 13.2513 40.5927 13.36 40.7977C13.4565 41.0028 13.5651 41.2079 13.6737 41.4009C13.891 41.8231 14.1082 42.2333 14.3375 42.6555C14.5427 43.0294 14.7478 43.4034 14.953 43.7773C14.9651 43.8135 14.9892 43.8377 15.0013 43.8739C15.2789 44.3684 15.5564 44.851 15.834 45.3456C16.1116 45.8281 16.4013 46.3227 16.6788 46.8173C16.703 46.8535 16.7271 46.9017 16.7512 46.9379C16.9323 47.2274 17.1254 47.5049 17.3064 47.8185C17.3305 47.8668 17.3547 47.9029 17.3788 47.9512C17.4271 48.0477 17.4754 48.1442 17.5236 48.2528C17.5478 48.301 17.5719 48.3493 17.584 48.3975C17.6081 48.4458 17.6323 48.5061 17.6443 48.5544C17.6685 48.6388 17.6926 48.7232 17.7167 48.8077C17.7167 48.8077 17.7409 48.8801 17.7409 48.9163C17.7409 48.9524 17.7529 48.9886 17.765 49.0369C17.8012 49.061 17.8254 49.0731 17.8736 49.0972C17.8616 49.0007 17.8374 48.9163 17.8133 48.8318Z" fill="white"/>
<path d="M57.6279 42.3296C57.2297 42.7277 56.8073 43.1017 56.4331 43.5118C56.4331 43.5118 56.4331 43.5118 56.4211 43.5239C56.4211 43.5239 56.3849 43.5721 56.3607 43.5963C56.3004 43.6566 56.24 43.7169 56.1797 43.7893C56.3004 43.7048 56.4211 43.6204 56.5417 43.5239C56.8917 43.1379 57.2779 42.788 57.6521 42.4261V42.2935L57.6279 42.3296Z" fill="white"/>
<path d="M44.5817 28.4209C44.111 28.8069 43.6645 29.2653 43.2541 29.8202C43.23 29.8564 43.2058 29.8805 43.1817 29.9046C43.1576 29.9408 43.1334 29.977 43.1093 30.0132C43.061 30.0735 43.0248 30.1338 42.9765 30.1942C42.9765 30.2062 42.9524 30.2183 42.9403 30.2424C42.9041 30.3027 42.8679 30.351 42.8317 30.4113C42.7955 30.4595 42.7714 30.4957 42.7472 30.544C42.7231 30.5802 42.699 30.6284 42.6748 30.6646C42.6748 30.6767 42.6507 30.7008 42.6386 30.7129C42.6145 30.7611 42.5783 30.8094 42.5541 30.8576C42.5179 30.9179 42.4817 30.9783 42.4576 31.0386C42.4335 31.0868 42.4093 31.1351 42.3852 31.1833C42.361 31.2316 42.3369 31.2798 42.3128 31.3281C42.2886 31.3763 42.2645 31.4367 42.2283 31.4849L42.18 31.5935C42.1438 31.6779 42.1076 31.7624 42.0593 31.8468C41.5042 33.1376 41.2266 34.5248 41.2266 36.0086C41.2266 36.4308 41.2266 36.841 41.2266 37.2632L34.3354 44.0306L34.2871 44.0789L34.3475 44.1392L41.3231 37.2873C41.3231 36.8651 41.3231 36.4549 41.3231 36.0327C41.3231 34.561 41.6007 33.1617 42.1559 31.8709C42.1921 31.7865 42.2283 31.7021 42.2766 31.6176L42.3248 31.509C42.3248 31.509 42.3731 31.4005 42.4093 31.3522C42.4335 31.304 42.4576 31.2557 42.4817 31.2075C42.5059 31.1592 42.53 31.111 42.5541 31.0627C42.5903 31.0024 42.6266 30.9421 42.6507 30.8818C42.6748 30.8335 42.711 30.7853 42.7352 30.737C42.7352 30.7249 42.7593 30.7008 42.7714 30.6887C42.7955 30.6526 42.8197 30.6043 42.8438 30.5681C42.8679 30.5199 42.9041 30.4837 42.9283 30.4354C42.9645 30.3751 43.0007 30.3269 43.0369 30.2665C43.0369 30.2545 43.061 30.2303 43.061 30.2183C43.0972 30.158 43.1455 30.0977 43.1938 30.0373C43.2179 30.0011 43.2421 29.965 43.2662 29.9288C43.2903 29.8926 43.3145 29.8564 43.3386 29.8202C44.9558 27.673 47.0678 26.8285 49.3971 26.8285C47.623 26.8044 45.9696 27.2628 44.5696 28.4088L44.5817 28.4209Z" fill="white"/>
<path d="M20.9155 26.985C20.9155 26.985 20.831 26.9609 20.7827 26.9609C20.7103 26.9488 20.6379 26.9368 20.5534 26.9247C20.5051 26.9247 20.4448 26.9127 20.3965 26.9006C20.2879 26.8885 20.1793 26.8885 20.0586 26.8765C20.2034 26.8885 20.3482 26.9006 20.4931 26.9247C20.5413 26.9247 20.6017 26.9368 20.65 26.9488C20.7224 26.9488 20.7948 26.973 20.8793 26.985C20.9275 26.985 20.9637 27.0092 21.012 27.0092C21.0724 27.0092 21.1206 27.0333 21.181 27.0453C21.0965 27.0212 20.9999 27.0092 20.9155 26.985Z" fill="white"/>
<path d="M48.8176 25.7066C50.5917 25.8755 52.1365 25.2361 53.6813 24.5485C53.7054 24.5244 53.7416 24.5003 53.7658 24.4641C52.2089 25.1517 50.6762 25.779 48.9021 25.6221C46.2711 25.3809 44.3401 24.0419 42.8678 21.9429H42.7471C42.7471 21.9429 42.7712 21.9911 42.7833 22.0273C44.2677 24.1263 46.1866 25.4653 48.8176 25.7066Z" fill="white"/>
<path d="M24.5475 23.1855C22.1096 25.5982 19.2735 26.2737 16.208 25.0915C15.6046 24.8623 15.0615 24.4884 14.4822 24.1868C14.4701 24.223 14.4339 24.2471 14.4219 24.2833C14.9891 24.5849 15.5322 24.9468 16.1236 25.176C19.2252 26.3702 22.0975 25.6706 24.5475 23.1855Z" fill="white"/>
</g>
<defs>
<clipPath id="clip0_1_9503">
<rect width="270" height="68" fill="white"/>
</clipPath>
</defs>
</svg>
