<svg width="55" height="65" viewBox="0 0 55 65" fill="none" xmlns="http://www.w3.org/2000/svg">
<path d="M12.8291 24.8525C12.9015 24.8525 12.986 24.8525 13.0584 24.8646C13.0584 24.8646 13.0584 24.8646 13.0463 24.8646C12.9739 24.8646 12.9015 24.8646 12.8291 24.8525Z" fill="#805C63"/>
<path d="M14.9895 61.971C14.5671 61.8021 14.1447 61.6211 13.7344 61.4402C14.1447 61.6332 14.5671 61.8021 14.9895 61.971Z" fill="#805C63"/>
<path d="M20.2149 34.4427C20.2149 33.3088 20.0822 32.2231 19.8046 31.1616C19.7925 31.1133 19.7804 31.053 19.7563 31.0048C19.7442 30.9565 19.7201 30.8962 19.708 30.8479C19.6839 30.7514 19.6477 30.6549 19.6236 30.5584C19.6236 30.5584 19.6236 30.5343 19.6236 30.5222C19.6115 30.474 19.5994 30.4378 19.5753 30.3895C19.5511 30.3292 19.5391 30.281 19.5149 30.2206C19.5029 30.1724 19.4787 30.1121 19.4546 30.0638C19.4305 30.0156 19.4184 29.9553 19.3943 29.907C18.9115 28.6645 18.2598 27.6633 17.4874 26.8912C17.3546 26.7585 17.2098 26.6258 17.0771 26.5052C17.0047 26.4449 16.9322 26.3846 16.8598 26.3242C16.715 26.2157 16.5581 26.1071 16.4133 25.9985C16.3409 25.9503 16.2564 25.902 16.184 25.8538C16.0633 25.7814 15.9547 25.7211 15.834 25.6487C15.7495 25.6125 15.6771 25.5643 15.5926 25.5281C15.4719 25.4678 15.3513 25.4195 15.2185 25.3713C15.0978 25.323 14.9651 25.2748 14.8323 25.2265C14.7961 25.2144 14.7478 25.2024 14.6995 25.1903C14.6392 25.1662 14.5668 25.1541 14.5064 25.13C14.4461 25.1059 14.3737 25.0938 14.3133 25.0817C14.2771 25.0817 14.253 25.0697 14.2168 25.0576C14.2771 25.0697 14.3496 25.0938 14.4099 25.1059C14.4702 25.13 14.5427 25.1421 14.603 25.1662C14.6513 25.1782 14.6875 25.1903 14.7357 25.2024C14.8685 25.2506 14.9892 25.2989 15.1219 25.3471C15.2426 25.3954 15.3754 25.4557 15.4961 25.504C15.5806 25.5401 15.665 25.5884 15.7374 25.6246C15.8581 25.6849 15.9788 25.7573 16.0874 25.8297C16.1598 25.8779 16.2443 25.9262 16.3167 25.9744C16.4736 26.083 16.6185 26.1795 16.7633 26.3001C16.8357 26.3604 16.9081 26.4208 16.9805 26.4811C17.1253 26.6017 17.2581 26.7344 17.3909 26.8671C18.1753 27.6391 18.815 28.6404 19.2977 29.8829C19.3218 29.9311 19.3339 29.9914 19.358 30.0397C19.3822 30.088 19.3942 30.1483 19.4184 30.1965C19.4425 30.2568 19.4546 30.3051 19.4787 30.3654C19.4908 30.4137 19.5029 30.4498 19.527 30.4981C19.527 30.5102 19.527 30.5222 19.527 30.5343C19.5632 30.6308 19.5873 30.7273 19.6115 30.8238C19.6236 30.8721 19.6477 30.9324 19.6598 30.9806C19.6598 31.0168 19.6718 31.0409 19.6839 31.0771C19.6839 31.0771 19.6839 31.1013 19.6839 31.1133C19.6839 31.1133 19.6839 31.1374 19.6839 31.1495C19.9615 32.2111 20.0942 33.3088 20.0942 34.4307C20.0942 34.6478 20.0942 34.877 20.0942 35.0942L27.2389 42.1149L27.2751 42.0787L20.1908 35.1183C20.1908 34.9012 20.1908 34.6719 20.1908 34.4548L20.2149 34.4427Z" fill="#805C63"/>
<path d="M17.4757 62.8636C16.9205 62.6947 16.3654 62.5017 15.8223 62.2966C16.3654 62.5017 16.9205 62.6827 17.4757 62.8636Z" fill="#805C63"/>
<path d="M43.6278 46.7594C43.6278 46.7594 43.6278 46.7353 43.6278 46.7112C43.6278 46.675 43.6278 46.6388 43.6278 46.6026C43.6278 46.5664 43.6278 46.5302 43.652 46.494C43.652 46.4699 43.652 46.4337 43.6761 46.4096V46.3854C43.6882 46.3251 43.7123 46.2769 43.7364 46.2166C43.7364 46.2166 43.7364 46.1924 43.7485 46.1804C43.7485 46.1562 43.7727 46.1321 43.7727 46.108C43.7727 46.108 43.7727 46.108 43.7727 46.0959C43.7847 46.0718 43.7968 46.0356 43.8089 46.0115C43.8209 45.9753 43.8451 45.9512 43.8571 45.927C43.8692 45.8909 43.8933 45.8547 43.9175 45.8185C43.9295 45.7943 43.9537 45.7582 43.9658 45.734C43.9899 45.6978 44.002 45.6617 44.0261 45.6255C44.0502 45.5893 44.0623 45.5652 44.0864 45.529C44.1106 45.4928 44.1226 45.4686 44.1468 45.4325C44.1709 45.3963 44.183 45.3601 44.2071 45.336C44.3761 45.0585 44.545 44.769 44.714 44.4915C44.714 44.4915 44.714 44.4795 44.7261 44.4674C44.895 44.19 45.0519 43.9125 45.2209 43.623C45.2571 43.5627 45.2933 43.5024 45.3174 43.4541C45.4381 43.249 45.5588 43.0319 45.6795 42.8268C45.6795 42.8268 45.6795 42.8268 45.6795 42.8148C45.8726 42.477 46.0536 42.1513 46.2467 41.8135C46.3553 41.6205 46.464 41.4275 46.5605 41.2345C46.6691 41.0415 46.7657 40.8485 46.8743 40.6554C46.9226 40.571 46.9588 40.4866 47.0071 40.4021C47.0553 40.3177 47.0915 40.2332 47.1398 40.1488C47.1398 40.1488 47.1398 40.1367 47.1519 40.1247C47.2122 40.0161 47.2605 39.9196 47.3208 39.811C47.3208 39.811 47.3329 39.7869 47.345 39.7748C47.345 39.7748 47.345 39.7507 47.357 39.7386C47.3691 39.7025 47.3933 39.6663 47.4053 39.6421C47.4295 39.5939 47.4536 39.5456 47.4777 39.4974C47.5019 39.4612 47.526 39.4129 47.5381 39.3768C47.5622 39.3164 47.5984 39.2682 47.6226 39.2079C47.695 39.0752 47.7553 38.9304 47.8277 38.7977C47.876 38.6892 47.9363 38.5806 47.9846 38.472C47.9967 38.4358 48.0208 38.4117 48.0329 38.3755C48.1053 38.2308 48.1777 38.086 48.2501 37.9292C48.2501 37.9292 48.2501 37.9171 48.2501 37.905C48.2743 37.8568 48.2984 37.7965 48.3225 37.7362C48.3346 37.7 48.3587 37.6638 48.3708 37.6276C48.3708 37.6155 48.3829 37.5914 48.395 37.5793C48.395 37.5793 48.395 37.5673 48.395 37.5552C48.407 37.519 48.4312 37.4828 48.4432 37.4466C48.4432 37.4346 48.4553 37.4225 48.4674 37.4105C48.5156 37.314 48.5639 37.2174 48.6001 37.1209C49.5053 35.1064 50.5673 33.0074 50.0846 30.7637C49.4691 27.9288 47.7432 25.7333 44.7864 25.094C44.4968 25.0337 44.2071 24.9854 43.9175 24.9492C44.1709 24.9854 44.4244 25.0337 44.6778 25.0819C47.6346 25.7213 49.3604 27.9168 49.9759 30.7516C50.4587 32.9953 49.3966 35.0943 48.4915 37.1089C48.4432 37.2174 48.395 37.326 48.3467 37.4225C48.3346 37.4587 48.3105 37.4949 48.2984 37.5311C48.2984 37.5311 48.2984 37.5432 48.2984 37.5552C48.2984 37.5673 48.2863 37.5914 48.2743 37.6035C48.2622 37.6397 48.2381 37.6758 48.226 37.712C48.2019 37.7724 48.1777 37.8206 48.1536 37.8809C48.1053 37.9895 48.045 38.0981 47.9967 38.2066C47.9605 38.279 47.9243 38.3634 47.8881 38.4358C47.8398 38.5444 47.7794 38.653 47.7312 38.7615C47.6588 38.9063 47.5984 39.039 47.526 39.1717C47.4777 39.2561 47.4415 39.3406 47.3933 39.4371C47.3933 39.4371 47.3933 39.4612 47.3812 39.4733C47.3691 39.5094 47.345 39.5336 47.3329 39.5698C47.3329 39.5818 47.3208 39.606 47.3088 39.618C47.2967 39.6542 47.2726 39.6904 47.2605 39.7145C47.2605 39.7145 47.2605 39.7386 47.2484 39.7507C47.2484 39.7507 47.2364 39.7748 47.2243 39.7869C47.1639 39.8955 47.1036 40.0161 47.0433 40.1247C46.9588 40.2935 46.8622 40.4624 46.7778 40.6313C46.6691 40.8243 46.5726 41.0173 46.464 41.2104C46.3553 41.4034 46.2467 41.5964 46.1502 41.7894C45.9571 42.1272 45.7761 42.4529 45.583 42.7906C45.583 42.7906 45.583 42.7906 45.583 42.8027C45.4623 43.0078 45.3416 43.2249 45.2209 43.43C45.1847 43.4903 45.1485 43.5506 45.1243 43.5989C44.9554 43.8763 44.7985 44.1658 44.6295 44.4433C44.6295 44.4433 44.6295 44.4674 44.6175 44.4674C44.4485 44.7449 44.2795 45.0344 44.1106 45.3118C44.0864 45.348 44.0744 45.3842 44.0502 45.4083C44.0261 45.4445 44.014 45.4686 43.9899 45.5048C43.9658 45.541 43.9537 45.5651 43.9295 45.6013C43.9054 45.6375 43.8933 45.6737 43.8692 45.7099C43.8571 45.734 43.833 45.7702 43.8209 45.7943C43.7968 45.8305 43.7847 45.8667 43.7606 45.9029C43.7485 45.927 43.7244 45.9632 43.7123 45.9874C43.7002 46.0115 43.6882 46.0356 43.6761 46.0718C43.6761 46.0718 43.6761 46.0718 43.6761 46.0839C43.6761 46.108 43.652 46.1321 43.652 46.1562C43.652 46.1562 43.652 46.1804 43.6399 46.1924C43.6158 46.2407 43.6037 46.301 43.5796 46.3613V46.3854C43.5796 46.4096 43.5675 46.4458 43.5554 46.4699C43.5554 46.5061 43.5433 46.5423 43.5313 46.5785C43.5313 46.6146 43.5313 46.6508 43.5313 46.687C43.483 46.7956 43.4227 46.8921 43.3623 47.0007C43.3503 47.0007 43.3382 47.0248 43.314 47.0369C43.314 47.0369 43.302 47.0489 43.2899 47.061C43.2658 47.061 43.2416 47.061 43.2296 47.073C43.2175 47.073 43.2054 47.1213 43.1934 47.1454C43.1934 47.1454 43.2175 47.1213 43.2296 47.1092C43.2296 47.1213 43.2175 47.1575 43.2054 47.1695C43.2416 47.1454 43.2658 47.1092 43.302 47.0851C43.314 47.0851 43.3261 47.0851 43.3382 47.0851C43.3382 47.073 43.3623 47.0489 43.3623 47.0369C43.4468 46.9645 43.5434 46.9042 43.6278 46.8318C43.6278 46.8318 43.652 46.8197 43.6761 46.8077C43.664 46.7956 43.6399 46.7715 43.6278 46.7594Z" fill="#805C63"/>
<path d="M9.12335 58.8827C8.51992 58.4847 7.94062 58.0624 7.36133 57.6282C7.92856 58.0624 8.51992 58.4847 9.12335 58.8827Z" fill="#805C63"/>
<path d="M6.98784 57.3266C6.56544 57.0009 6.16717 56.6511 5.75684 56.3013C6.1551 56.6511 6.56544 56.9889 6.98784 57.3266Z" fill="#805C63"/>
<path d="M13.1427 61.1748C12.5272 60.8732 11.9117 60.5596 11.3203 60.2339C11.9117 60.5717 12.5272 60.8853 13.1427 61.1748Z" fill="#805C63"/>
<path d="M4.83935 55.4809C4.59798 55.2517 4.34454 55.0225 4.11523 54.7812C4.35661 55.0225 4.59798 55.2517 4.83935 55.4809Z" fill="#805C63"/>
<path d="M43.7243 24.9127C43.6157 24.9006 43.5071 24.8885 43.3984 24.8765C43.5071 24.8765 43.6157 24.8885 43.7243 24.9127Z" fill="#805C63"/>
<path d="M50.4709 54.2021C49.4812 55.2275 48.4313 56.2046 47.333 57.1094C48.4433 56.2167 49.4812 55.2396 50.4709 54.2021Z" fill="#805C63"/>
<path d="M35.7475 63.0928C35.3493 63.2013 34.9631 63.3099 34.5527 63.4064C34.951 63.3099 35.3493 63.2013 35.7475 63.0928Z" fill="#805C63"/>
<path d="M34.1899 56.7475C34.1899 51.9705 34.214 47.1814 34.214 42.3924L30.8831 45.6615H23.6178L20.1058 42.2114C20.1058 47.0608 20.1299 51.8981 20.1299 56.7475C20.1178 58.8103 20.0816 61.4763 20.1058 63.5391C22.3264 64.0216 24.6436 64.287 27.009 64.287C29.3745 64.287 31.8848 63.9975 34.1899 63.4788C34.2382 61.416 34.1899 58.8103 34.1899 56.7475Z" fill="white"/>
<path d="M46.8505 57.4834C46.5971 57.6885 46.3436 57.8694 46.0781 58.0624C46.3436 57.8694 46.5971 57.6764 46.8505 57.4834Z" fill="#805C63"/>
<path d="M10.9827 60.0288C10.3793 59.679 9.8 59.3291 9.2207 58.9431C9.8 59.3171 10.3793 59.679 10.9827 60.0288Z" fill="#805C63"/>
<path d="M48.8174 42.0668C48.9139 41.9944 49.0225 41.922 49.1191 41.8497C49.1191 41.8497 49.1432 41.8255 49.1432 41.8135C49.0346 41.8859 48.926 41.9703 48.8294 42.0427C48.8294 42.0427 48.8295 42.0427 48.8174 42.0427V42.0668Z" fill="#805C63"/>
<path d="M19.7682 63.4666C19.2855 63.3581 18.8027 63.2374 18.332 63.1047C18.8148 63.2374 19.2855 63.3581 19.7682 63.4666Z" fill="#805C63"/>
<path d="M50.6397 54.0334C50.6397 54.0334 50.531 54.142 50.4707 54.2023C50.531 54.142 50.5914 54.0938 50.6397 54.0334Z" fill="#E83851"/>
<path d="M15.8093 62.2967C15.5317 62.1881 15.2541 62.0795 14.9766 61.9709C15.2541 62.0795 15.5317 62.2001 15.8093 62.2967Z" fill="#E83851"/>
<path d="M18.3325 63.1048C18.0428 63.0203 17.7652 62.948 17.4756 62.8635C17.7532 62.948 18.0428 63.0324 18.3325 63.1048Z" fill="#E83851"/>
<path d="M20.1065 63.5512C19.9979 63.515 19.8772 63.4909 19.7686 63.4668C19.8772 63.4909 19.9979 63.5271 20.1065 63.5512Z" fill="#E83851"/>
<path d="M34.1904 63.4908C34.3111 63.4667 34.4197 63.4305 34.5404 63.3943C34.4197 63.4184 34.3111 63.4425 34.1904 63.4787V63.4908Z" fill="#E83851"/>
<path d="M46.0899 58.0625C43.0124 60.3183 39.5125 62.0313 35.7471 63.0928C39.7418 62.0192 43.121 60.2821 46.0899 58.0625Z" fill="#E83851"/>
<path d="M13.7222 61.4402C13.5291 61.3558 13.324 61.2713 13.1309 61.1748C13.324 61.2713 13.5171 61.3558 13.7222 61.4402Z" fill="#E83851"/>
<path d="M3.69238 54.3711C3.82514 54.5159 3.98203 54.6365 4.11479 54.7813C3.96996 54.6365 3.83721 54.4797 3.69238 54.335V54.3711Z" fill="#E83851"/>
<path d="M5.75608 56.3133C5.4423 56.0359 5.14058 55.7705 4.83887 55.481C5.14058 55.7584 5.4423 56.0359 5.75608 56.3133Z" fill="#E83851"/>
<path d="M9.20772 58.944C9.20772 58.944 9.14747 58.9073 9.11133 58.8828C9.14747 58.9073 9.17157 58.9195 9.20772 58.944Z" fill="#E83851"/>
<path d="M7.36143 57.6282C7.22868 57.5317 7.10799 57.4352 6.9873 57.3267C7.10799 57.4232 7.24075 57.5197 7.36143 57.6282Z" fill="#E83851"/>
<path d="M50.628 40.4621C50.2539 40.824 49.8677 41.1738 49.5177 41.5599C49.397 41.6443 49.2763 41.7408 49.1556 41.8253C49.1556 41.8253 49.1315 41.8494 49.1315 41.8614C49.2522 41.777 49.3849 41.6805 49.5056 41.5961C49.4815 41.6202 49.4694 41.6443 49.4453 41.6684C47.7436 43.6347 45.873 45.3839 43.7489 46.8797C43.7489 46.8797 43.7368 46.8677 43.7247 46.8556L43.7006 46.8315C43.6885 46.8315 43.6765 46.8556 43.6523 46.8677C43.5679 46.928 43.4713 47.0003 43.3868 47.0607C43.3868 47.0727 43.3627 47.0969 43.3627 47.1089C43.3506 47.1089 43.3386 47.1089 43.3265 47.1089C43.2903 47.133 43.2661 47.1692 43.2299 47.1934C43.2299 47.1692 43.2299 47.1451 43.2541 47.133C43.2541 47.133 43.2299 47.1572 43.2179 47.1692C43.2179 47.1451 43.2299 47.1089 43.2541 47.0969C43.2782 47.0969 43.2903 47.0848 43.3144 47.0848C43.3144 47.0848 43.3265 47.0727 43.3386 47.0607C43.3506 47.0607 43.3748 47.0365 43.3868 47.0245C43.4472 46.9159 43.4954 46.8194 43.5558 46.7108C43.5558 46.7108 43.5558 46.6385 43.5558 46.6023C43.5558 46.5661 43.5558 46.5299 43.5799 46.4937C43.5799 46.4696 43.5799 46.4334 43.6041 46.4093V46.3851C43.6161 46.3248 43.6403 46.2766 43.6644 46.2162C43.6644 46.2162 43.6644 46.1921 43.6765 46.1801C43.6765 46.1559 43.7006 46.1318 43.7006 46.1077C43.7006 46.1077 43.7006 46.1077 43.7006 46.0956C43.7127 46.0715 43.7248 46.0353 43.7368 46.0112C43.7489 45.975 43.773 45.9509 43.7851 45.9267C43.7972 45.8905 43.8213 45.8543 43.8454 45.8182C43.8575 45.794 43.8816 45.7578 43.8937 45.7337C43.9178 45.6975 43.942 45.6613 43.9541 45.6251C43.9782 45.589 43.9903 45.5648 44.0144 45.5286C44.0385 45.4925 44.0506 45.4683 44.0747 45.4321C44.0989 45.3959 44.1109 45.3598 44.1351 45.3356C44.304 45.0582 44.473 44.7687 44.642 44.4912C44.642 44.4912 44.642 44.4791 44.654 44.4671C44.823 44.1896 44.9799 43.9122 45.1488 43.6227C45.1851 43.5623 45.2213 43.502 45.2454 43.4538C45.3661 43.2487 45.4868 43.0316 45.6075 42.8265C45.6075 42.8265 45.6075 42.8265 45.6075 42.8144C45.8006 42.4767 45.9816 42.151 46.1747 41.8132C46.2833 41.6202 46.3919 41.4272 46.4885 41.2342C46.5971 41.0411 46.6936 40.8481 46.8023 40.6551C46.8867 40.4862 46.9833 40.3174 47.0678 40.1485C47.1281 40.0399 47.1885 39.9193 47.2488 39.8107C47.2488 39.8107 47.2609 39.7866 47.2729 39.7745C47.2729 39.7745 47.2729 39.7504 47.285 39.7383C47.2971 39.7021 47.3212 39.666 47.3333 39.6418C47.3333 39.6298 47.3453 39.6056 47.3574 39.5936C47.3695 39.5574 47.3936 39.5333 47.4057 39.4971C47.4057 39.4971 47.4057 39.4729 47.4178 39.4609C47.466 39.3764 47.5022 39.292 47.5505 39.1955C47.6229 39.0628 47.6833 38.918 47.7557 38.7853C47.804 38.6768 47.8643 38.5682 47.9126 38.4596C47.9488 38.3873 47.985 38.3028 48.0212 38.2304C48.0695 38.1219 48.1298 38.0133 48.1781 37.9047C48.2022 37.8565 48.2264 37.7962 48.2505 37.7358C48.2626 37.6997 48.2867 37.6635 48.2988 37.6273C48.2988 37.6152 48.3108 37.5911 48.3229 37.579C48.3229 37.579 48.3229 37.567 48.3229 37.5549C48.335 37.5187 48.3591 37.4825 48.3712 37.4463C48.4195 37.3378 48.4677 37.2292 48.516 37.1327C49.4212 35.1181 50.4832 33.0071 50.0005 30.7754C49.3849 27.9406 47.6591 25.7451 44.7023 25.1057C44.4489 25.0454 44.1954 25.0092 43.942 24.973C43.8575 24.973 43.773 24.9368 43.7006 24.9368C43.592 24.9248 43.4834 24.9127 43.3748 24.9006C43.061 24.8645 42.7472 24.8403 42.4455 24.8403C42.4334 24.8403 42.4093 24.8403 42.3972 24.8403C40.0679 24.8403 37.9559 25.6848 36.3387 27.832C36.3146 27.8682 36.2905 27.9044 36.2663 27.9406C36.2422 27.9768 36.218 28.0129 36.1939 28.0491C36.1456 28.1094 36.1094 28.1698 36.0612 28.2301C36.0612 28.2421 36.037 28.2542 36.037 28.2783C36.0008 28.3386 35.9646 28.3869 35.9284 28.4472C35.9043 28.4955 35.8681 28.5317 35.8439 28.5799C35.8198 28.6161 35.7956 28.6644 35.7715 28.7005C35.7715 28.7126 35.7474 28.7367 35.7353 28.7488C35.7112 28.797 35.675 28.8453 35.6508 28.8936C35.6146 28.9539 35.5784 29.0142 35.5543 29.0745C35.5301 29.1228 35.506 29.171 35.4819 29.2193C35.4577 29.2675 35.4336 29.3158 35.4094 29.364C35.3853 29.4123 35.3612 29.4726 35.325 29.5208L35.2767 29.6294C35.2405 29.7138 35.2043 29.7983 35.156 29.8827C34.6008 31.1735 34.3233 32.5608 34.3233 34.0445C34.3233 34.4667 34.3233 34.8769 34.3233 35.2991L27.3476 42.151L27.2872 42.0906L27.251 42.1268L20.1064 35.1061C20.1064 34.8889 20.1064 34.6597 20.1064 34.4426C20.1064 33.3087 19.9736 32.223 19.6961 31.1614C19.6961 31.1614 19.6961 31.1373 19.6961 31.1252C19.6961 31.1252 19.6961 31.1011 19.6961 31.089C19.6961 31.0529 19.684 31.0287 19.6719 30.9925C19.6598 30.9443 19.6357 30.884 19.6236 30.8357C19.5995 30.7392 19.5633 30.6427 19.5392 30.5462C19.5392 30.5462 19.5392 30.5221 19.5392 30.51C19.5271 30.4618 19.515 30.4256 19.4909 30.3773C19.4667 30.317 19.4547 30.2688 19.4305 30.2084C19.4185 30.1602 19.3943 30.0999 19.3702 30.0516C19.3461 30.0034 19.334 29.943 19.3099 29.8948C18.8271 28.6523 18.1754 27.651 17.403 26.879C17.2702 26.7463 17.1254 26.6136 16.9927 26.493C16.9203 26.4327 16.8478 26.3724 16.7754 26.312C16.6306 26.2035 16.4737 26.0949 16.3289 25.9863C16.2565 25.9381 16.172 25.8898 16.0996 25.8416C15.9789 25.7692 15.8703 25.7089 15.7496 25.6365C15.6651 25.6003 15.5927 25.5521 15.5082 25.5159C15.3875 25.4556 15.2669 25.4073 15.1341 25.359C15.0134 25.3108 14.8807 25.2625 14.7479 25.2143C14.6996 25.2022 14.6634 25.1902 14.6151 25.1781C14.5548 25.154 14.4824 25.1419 14.422 25.1178C14.3617 25.0937 14.2893 25.0816 14.2289 25.0695C14.1686 25.0575 14.1203 25.0454 14.06 25.0333C14.0117 25.0333 13.9755 25.0092 13.9272 25.0092C13.8548 24.9972 13.7824 24.9851 13.6979 24.973C13.6497 24.973 13.5893 24.961 13.541 24.9489C13.3962 24.9248 13.2514 24.9127 13.1066 24.9006C13.0342 24.9006 12.9497 24.9006 12.8773 24.8886H12.8531C12.8411 24.8886 12.829 24.8886 12.8048 24.8886C11.6342 24.8283 10.4032 25.0213 9.14804 25.4314C8.68943 25.5882 8.25496 25.7813 7.84463 26.0225C7.78428 26.0587 7.72394 26.0949 7.67567 26.1311C7.61532 26.1673 7.54291 26.2155 7.48257 26.2517C7.38602 26.312 7.30154 26.3724 7.21706 26.4447C7.0843 26.5412 6.96362 26.6377 6.83086 26.7463C6.69811 26.8549 6.56535 26.9755 6.44466 27.0961C6.32398 27.2168 6.20329 27.3495 6.09467 27.4701C6.07054 27.5063 6.03433 27.5304 6.01019 27.5666C5.97399 27.6149 5.93778 27.6631 5.90157 27.6993C5.8533 27.7596 5.81709 27.8079 5.76882 27.8682C5.70848 27.9526 5.63606 28.0491 5.57572 28.1336C5.21366 28.6764 4.92401 29.2675 4.70678 29.8948C4.67057 30.0034 4.64643 30.0999 4.61023 30.2084C4.34472 31.1614 4.24817 32.1747 4.36885 33.2122C4.38092 33.3449 4.40506 33.4655 4.41713 33.5982C4.44127 33.7429 4.4654 33.8877 4.50161 34.0325C4.52575 34.141 4.54988 34.2617 4.58609 34.3702C4.64643 34.5994 4.71885 34.8286 4.80333 35.0578C5.0447 35.7213 5.31021 36.3727 5.58779 37.0121C5.67227 37.2051 5.75675 37.386 5.84123 37.579C5.93778 37.7962 6.0464 38.0254 6.15502 38.2425C6.25156 38.4476 6.34811 38.6526 6.45673 38.8577C6.55328 39.0628 6.6619 39.2679 6.77052 39.4609C6.98775 39.8831 7.20499 40.2932 7.43429 40.7154C7.63946 41.0894 7.84463 41.4634 8.0498 41.8373C8.06186 41.8735 8.086 41.8976 8.09807 41.9338C8.37565 42.4284 8.65323 42.9109 8.93081 43.4055C9.20839 43.8881 9.49803 44.3826 9.77561 44.8772C9.79975 44.9134 9.82389 44.9617 9.84803 44.9979C10.0291 45.2874 10.2222 45.5648 10.4032 45.8785C10.4273 45.9267 10.4515 45.9629 10.4756 46.0112C10.5239 46.1077 10.5721 46.2042 10.6204 46.3007C10.6446 46.3489 10.6687 46.3972 10.6808 46.4454C10.7049 46.4937 10.717 46.554 10.7411 46.6023C10.7652 46.6867 10.7894 46.7711 10.8135 46.8556C10.8377 46.94 10.8497 47.0365 10.8739 47.121C10.8256 47.0969 10.8014 47.0848 10.7652 47.0607C10.7652 47.0727 10.7652 47.0848 10.7652 47.0969C10.6084 47.0003 10.4877 46.928 10.4032 46.8797C10.379 46.8677 10.3549 46.8556 10.3428 46.8435C10.3428 46.8435 10.3066 46.8194 10.2825 46.8073C10.2584 46.7953 10.2222 46.7711 10.198 46.747C10.198 46.747 10.198 46.747 10.1859 46.747C10.1135 46.6867 10.0291 46.6264 9.95664 46.5781C9.72734 46.3972 9.5101 46.2283 9.2808 46.0474C9.01529 45.8302 8.73771 45.601 8.48427 45.3718C8.31531 45.2271 8.14634 45.0702 7.96531 44.9134C7.62739 44.6118 7.28947 44.2982 6.96362 43.9725C6.79465 43.8157 6.63776 43.6589 6.4688 43.49C6.37225 43.3935 6.28777 43.309 6.19122 43.2125C6.01019 43.0316 5.82916 42.8506 5.64813 42.6697C5.38262 42.4043 5.12918 42.1389 4.87574 41.8735C4.6223 41.6081 4.35679 41.3427 4.10334 41.0773C3.97059 40.9446 3.8499 40.812 3.71715 40.6793C3.71715 45.2391 3.71715 49.799 3.70508 54.3468V54.383C3.8499 54.5278 3.98266 54.6846 4.12748 54.8293C4.36885 55.0706 4.61023 55.2998 4.8516 55.529C5.15332 55.8064 5.45503 56.0839 5.76882 56.3614C6.16708 56.7112 6.57742 57.049 6.99982 57.3867C7.12051 57.4832 7.25326 57.5797 7.37395 57.6883C7.94118 58.1226 8.53254 58.5448 9.13597 58.9429C9.17218 58.967 9.19632 58.9791 9.23252 59.0032C9.81182 59.3771 10.3911 59.739 10.9945 60.0889C11.1032 60.1492 11.2239 60.2216 11.3325 60.2819C11.9238 60.6197 12.5393 60.9333 13.1548 61.2228C13.3479 61.3193 13.541 61.4038 13.7462 61.4882C14.1565 61.6812 14.5789 61.8501 15.0013 62.019C15.2789 62.1275 15.5565 62.2482 15.8341 62.3447C16.3772 62.5498 16.9323 62.7307 17.4875 62.9117C17.7651 62.9961 18.0547 63.0805 18.3444 63.1529C18.8271 63.2856 19.2978 63.4062 19.7805 63.5148C19.8891 63.5389 20.0098 63.5631 20.1185 63.5993C20.0943 61.5365 20.1305 58.8705 20.1426 56.8077C20.1426 51.9583 20.1185 47.121 20.1185 42.2716L23.6304 45.7217H30.8958L34.2267 42.4405C34.2267 47.2175 34.2026 52.0066 34.2026 56.7956C34.2026 58.8584 34.2509 61.4641 34.2026 63.5269C34.3233 63.5027 34.4319 63.4786 34.5526 63.4424C34.9629 63.3459 35.3491 63.2374 35.7474 63.1288C39.5249 62.0672 43.0127 60.3543 46.0902 58.0985C46.3436 57.9054 46.6092 57.7124 46.8626 57.5194C47.0195 57.3988 47.1885 57.2661 47.3453 57.1334C48.4436 56.2287 49.4815 55.2515 50.4832 54.2262C50.5435 54.1659 50.5918 54.1055 50.6522 54.0452C50.6522 49.4854 50.6522 45.2029 50.6401 40.6431V40.4862L50.628 40.4621Z" fill="#E6302D"/>
<path d="M41.9021 23.622C43.6762 23.7909 45.221 23.1515 46.7657 22.4639C47.2123 22.0417 47.683 21.6436 48.1054 21.1852C50.9294 18.1212 50.7967 13.3804 47.8157 10.449C44.8348 7.52972 40.0918 7.49353 37.0746 10.3887C34.5161 12.8496 34.0454 16.1911 35.7471 19.9427H35.8677C37.3522 22.0417 39.2711 23.3807 41.9021 23.622Z" fill="#E6302D"/>
<path d="M9.20839 23.0912C12.2738 24.2734 15.11 23.5978 17.5478 21.1852C17.8978 20.8354 18.2357 20.4494 18.5616 20.0272C18.7306 19.6411 18.9237 19.2672 19.0805 18.8691C21.2167 13.501 16.8841 7.68655 11.2239 8.30177C8.00152 8.6516 5.35848 10.7385 4.53782 13.7543C3.59646 17.1923 4.61023 20.0513 7.39809 22.2709C7.39809 22.2709 7.41015 22.2709 7.42222 22.283C7.44636 22.2468 7.4705 22.2226 7.48257 22.1865C8.04979 22.488 8.60495 22.862 9.20839 23.0912Z" fill="#E6302D"/>
<path d="M27.2143 0.593742C22.9541 0.545489 19.418 4.14031 19.4783 8.33829C19.5386 12.7172 22.7851 16.0828 27.1178 16.0949C31.4745 16.0949 34.8417 12.7655 34.8538 8.43479C34.9624 4.26094 31.6194 0.641995 27.2143 0.593742Z" fill="white"/>
<path d="M10.7168 46.8074C10.6926 46.723 10.6685 46.6385 10.6444 46.5541C10.6202 46.4938 10.6082 46.4455 10.584 46.3973C10.5599 46.349 10.5478 46.3007 10.5237 46.2525C10.4754 46.156 10.4271 46.0474 10.3789 45.9509C10.3547 45.9027 10.3306 45.8665 10.3064 45.8182C10.1254 45.5046 9.92025 45.2271 9.75129 44.9376C9.72715 44.9014 9.70301 44.8532 9.67888 44.817C9.4013 44.3345 9.11165 43.8399 8.83407 43.3453C8.55649 42.8628 8.27891 42.3682 8.00133 41.8736C7.98926 41.8374 7.96513 41.8133 7.95306 41.7771C7.74789 41.4031 7.53066 41.0292 7.33756 40.6552C7.10825 40.245 6.89102 39.8228 6.67378 39.4006C6.56516 39.1956 6.46861 38.9905 6.36 38.7975C6.26345 38.5924 6.15483 38.3873 6.05828 38.1822C5.94966 37.9651 5.85311 37.748 5.74449 37.5188C5.66001 37.3258 5.57553 37.1448 5.49105 36.9518C5.21347 36.3125 4.94796 35.661 4.70659 34.9976C4.62211 34.7684 4.5497 34.5392 4.48935 34.31C4.46522 34.2014 4.42901 34.0808 4.40487 33.9722C4.36867 33.8274 4.34453 33.6827 4.32039 33.5379C4.29626 33.4052 4.28419 33.2846 4.27212 33.1519C4.15143 32.1265 4.23591 31.1012 4.51349 30.1482C4.53763 30.0396 4.57383 29.931 4.61004 29.8345C4.81521 29.2073 5.10486 28.6162 5.47898 28.0733C5.53933 27.9889 5.59967 27.8924 5.67208 27.8079C5.67208 27.8079 5.75656 27.6994 5.80484 27.639C5.84104 27.5908 5.87725 27.5425 5.91346 27.5064C5.93759 27.4702 5.9738 27.434 5.99794 27.4098C6.10655 27.2772 6.22724 27.1565 6.34793 27.0359C6.46861 26.9153 6.60137 26.7946 6.73412 26.6861C6.83067 26.6016 6.92722 26.5292 7.02377 26.4569C7.05998 26.4327 7.08412 26.4086 7.12032 26.3845C7.2048 26.3242 7.30135 26.2518 7.38583 26.1915C7.44618 26.1553 7.50652 26.107 7.57893 26.0708C8.02547 25.7934 8.52029 25.5642 9.05131 25.3832C10.3668 24.949 11.6581 24.7801 12.8771 24.8645C12.9495 24.8645 13.0219 24.8645 13.0943 24.8766C13.0943 24.8766 13.0943 24.8766 13.1064 24.8766C13.215 24.8766 13.3357 24.8766 13.4443 24.9007C13.4926 24.9007 13.5529 24.9128 13.6012 24.9248C13.6736 24.9248 13.746 24.949 13.8305 24.961C13.8788 24.961 13.915 24.9852 13.9633 24.9852C14.0477 25.0093 14.1443 25.0213 14.2288 25.0455C14.265 25.0455 14.2891 25.0575 14.3253 25.0696C14.3857 25.0817 14.4581 25.1058 14.5184 25.1179C14.5788 25.142 14.6512 25.154 14.7115 25.1782C14.7598 25.1902 14.796 25.2023 14.8443 25.2144C14.977 25.2626 15.0977 25.3109 15.2305 25.3591C15.3511 25.4074 15.4839 25.4677 15.6046 25.5159C15.6891 25.5521 15.7735 25.6004 15.846 25.6366C15.9666 25.6969 16.0873 25.7693 16.196 25.8416C16.2684 25.8899 16.3528 25.9381 16.4253 25.9864C16.5821 26.095 16.727 26.1915 16.8718 26.3121C16.9442 26.3724 17.0166 26.4327 17.089 26.4931C17.2339 26.6137 17.3666 26.7464 17.4994 26.8791C18.2718 27.6511 18.9235 28.6524 19.4062 29.8949C19.4304 29.9431 19.4424 30.0034 19.4666 30.0517C19.4907 30.0999 19.5028 30.1603 19.5269 30.2085C19.551 30.2688 19.5631 30.3171 19.5872 30.3774C19.5993 30.4256 19.6114 30.4618 19.6355 30.5101C19.6355 30.5221 19.6355 30.5342 19.6355 30.5463C19.6717 30.6428 19.6959 30.7393 19.72 30.8358C19.7321 30.884 19.7562 30.9444 19.7683 30.9926C19.7803 31.0409 19.7924 31.1012 19.8165 31.1494C20.0941 32.211 20.2269 33.3087 20.2269 34.4306C20.2269 34.6477 20.2269 34.8769 20.2269 35.0941L27.3112 42.0545L27.3595 42.0063L34.2507 35.2388C34.2507 34.8166 34.2507 34.4065 34.2507 33.9843C34.2507 32.5126 34.5282 31.1132 35.0834 29.8225C35.1196 29.738 35.1558 29.6536 35.2041 29.5692L35.2524 29.4606C35.2524 29.4606 35.3006 29.352 35.3368 29.3038C35.361 29.2555 35.3851 29.2073 35.4093 29.159C35.4334 29.1108 35.4575 29.0625 35.4817 29.0142C35.5179 28.9539 35.5541 28.8936 35.5782 28.8333C35.6024 28.785 35.6386 28.7368 35.6627 28.6885C35.6627 28.6765 35.6868 28.6524 35.6989 28.6403C35.723 28.6041 35.7472 28.5558 35.7713 28.5197C35.7955 28.4714 35.8317 28.4352 35.8558 28.387C35.892 28.3267 35.9282 28.2784 35.9644 28.2181C35.9644 28.206 35.9886 28.1819 36.0006 28.1698C36.0368 28.1095 36.0851 28.0492 36.1334 27.9889C36.1575 27.9527 36.1816 27.9165 36.2058 27.8803C36.2299 27.8562 36.2541 27.82 36.2782 27.7959C36.6885 27.253 37.1351 26.7826 37.6058 26.3965C39.0178 25.2505 40.6712 24.7921 42.4332 24.8163C42.4453 24.8163 42.4694 24.8163 42.4815 24.8163C42.7953 24.8163 43.097 24.8404 43.4108 24.8766C43.5194 24.8766 43.628 24.8887 43.7366 24.9128C43.8211 24.9128 43.8935 24.9369 43.978 24.949C44.2677 24.9972 44.5573 25.0334 44.8469 25.0937C47.8158 25.7331 49.5296 27.9286 50.1451 30.7634C50.6278 33.0072 49.5658 35.1061 48.6606 37.1207C48.6124 37.2172 48.5762 37.3137 48.5279 37.4102C48.5279 37.4223 48.5158 37.4343 48.5038 37.4464C48.4917 37.4826 48.4675 37.5188 48.4555 37.555C48.4555 37.555 48.4555 37.567 48.4555 37.5791C48.4555 37.5912 48.4434 37.6153 48.4313 37.6273C48.4193 37.6635 48.3951 37.6997 48.3831 37.7359C48.3589 37.7962 48.3348 37.8445 48.3107 37.9048C48.3107 37.9048 48.3107 37.9169 48.3107 37.9289C48.2382 38.0737 48.1658 38.2184 48.0934 38.3753C48.0813 38.4114 48.0693 38.4356 48.0451 38.4718C47.9969 38.5803 47.9365 38.6889 47.8882 38.7975C47.8158 38.9422 47.7555 39.0749 47.6831 39.2076C47.6589 39.2679 47.6227 39.3162 47.5986 39.3765C47.5745 39.4127 47.5624 39.4609 47.5383 39.4971C47.5141 39.5454 47.49 39.5936 47.4658 39.6419C47.4538 39.6781 47.4296 39.7143 47.4176 39.7384C47.4176 39.7384 47.4176 39.7625 47.4055 39.7746C47.4055 39.7746 47.3934 39.7987 47.3814 39.8108C47.3331 39.9193 47.2727 40.0158 47.2124 40.1244C47.2124 40.1244 47.2124 40.1365 47.2003 40.1485C47.1521 40.233 47.1159 40.3174 47.0676 40.4019C47.0193 40.4863 46.9831 40.5708 46.9348 40.6552C46.8262 40.8482 46.7297 41.0412 46.621 41.2342C46.5124 41.4272 46.4038 41.6202 46.3073 41.8133C46.1142 42.151 45.9331 42.4767 45.74 42.8145C45.74 42.8145 45.74 42.8145 45.74 42.8266C45.6193 43.0316 45.4987 43.2488 45.378 43.4538C45.3418 43.5142 45.3056 43.5745 45.2814 43.6227C45.1125 43.9002 44.9556 44.1897 44.7866 44.4672C44.7866 44.4672 44.7866 44.4913 44.7745 44.4913C44.6056 44.7687 44.4366 45.0582 44.2677 45.3357C44.2435 45.3719 44.2314 45.4081 44.2073 45.4322C44.1832 45.4684 44.1711 45.4925 44.147 45.5287C44.1228 45.5649 44.1108 45.589 44.0866 45.6252C44.0625 45.6614 44.0504 45.6976 44.0263 45.7338C44.0142 45.7579 43.9901 45.7941 43.978 45.8182C43.9539 45.8544 43.9418 45.8906 43.9177 45.9268C43.9056 45.9509 43.8815 45.9871 43.8694 46.0112C43.8573 46.0354 43.8452 46.0595 43.8332 46.0957C43.8332 46.0957 43.8332 46.0957 43.8332 46.1077C43.8332 46.1319 43.809 46.156 43.809 46.1801C43.809 46.1801 43.809 46.2042 43.797 46.2163C43.7728 46.2646 43.7608 46.3249 43.7366 46.3852V46.4093C43.7366 46.4334 43.7246 46.4696 43.7125 46.4938C43.7125 46.53 43.7004 46.5661 43.6884 46.6023C43.6763 46.6385 43.6884 46.6747 43.6884 46.7109C43.6884 46.723 43.6884 46.735 43.6884 46.7591C43.6884 46.7591 43.7246 46.7953 43.7366 46.8074C44.0263 46.6023 44.3039 46.3973 44.5814 46.1922C44.678 46.1198 44.7745 46.0474 44.8711 45.975C46.44 44.7446 47.8641 43.3573 49.1917 41.8615C49.0951 41.9339 48.9986 42.0063 48.8899 42.0786C48.8899 42.0786 48.8899 42.0786 48.902 42.0786C49.0106 42.0063 49.1193 41.9218 49.2158 41.8494C49.2761 41.7891 49.3365 41.7288 49.3968 41.6564C49.421 41.6323 49.433 41.6082 49.4572 41.5841C49.4572 41.5841 49.4572 41.5841 49.4692 41.572C49.8434 41.1618 50.2658 40.7879 50.664 40.3898V40.5225C50.664 40.5225 50.7244 40.4622 50.7606 40.426C51.5692 38.906 52.6554 37.5429 53.3553 35.9385C55.0812 32.018 54.4415 28.5317 51.3882 25.5159C50.0606 24.2131 48.4917 23.2963 46.8141 22.5363C46.79 22.5605 46.7538 22.5846 46.7297 22.6208C45.1728 23.3084 43.6401 23.9357 41.866 23.7788C39.235 23.5376 37.304 22.1986 35.8317 20.0996C35.8196 20.0755 35.8075 20.0513 35.7955 20.0151C30.099 20.0151 24.4026 20.0151 18.6942 20.0151C18.3321 20.4735 17.97 20.8837 17.5959 21.2576C15.1339 23.7427 12.2616 24.4423 9.17199 23.2481C8.58063 23.0189 8.03754 22.657 7.47031 22.3554C7.1686 22.8982 6.55309 23.0068 6.05828 23.2722C-0.120874 26.6378 -1.58118 32.1989 2.18424 38.1219C2.7394 38.9905 3.29456 39.859 3.86178 40.7276C3.99454 40.8603 4.11523 40.993 4.24798 41.1257C4.50142 41.391 4.75486 41.6564 5.02037 41.9218C5.27382 42.1872 5.53933 42.4526 5.79277 42.718C5.9738 42.8989 6.15483 43.0799 6.33586 43.2608C6.43241 43.3573 6.51689 43.4418 6.61344 43.5383C6.7824 43.6951 6.93929 43.864 7.10825 44.0208C7.43411 44.3345 7.77203 44.6481 8.10995 44.9617C8.27891 45.1186 8.44787 45.2633 8.6289 45.4201C8.89441 45.6493 9.15992 45.8785 9.42543 46.0957C9.64267 46.2766 9.87198 46.4576 10.1013 46.6265C10.1737 46.6868 10.2582 46.735 10.3306 46.7953C10.3306 46.7953 10.3306 46.7953 10.3427 46.7953C10.3427 46.7953 10.3427 46.7953 10.3547 46.7953C10.3789 46.8195 10.403 46.8315 10.4392 46.8557C10.4633 46.8677 10.4754 46.8798 10.4995 46.8918C10.4995 46.8918 10.5478 46.916 10.5599 46.928C10.6202 46.9642 10.7168 47.0245 10.8133 47.0849C10.8133 47.0487 10.8013 47.0125 10.7892 46.9642C10.7892 46.928 10.7651 46.8918 10.7651 46.8557L10.7168 46.8074Z" fill="white"/>
<path d="M43.399 24.8889C43.0852 24.8527 42.7714 24.8407 42.4697 24.8286C42.7714 24.8286 43.0852 24.8527 43.399 24.8889Z" fill="white"/>
<path d="M44.8112 45.9753C44.7147 46.0477 44.6181 46.1201 44.5216 46.1925C44.244 46.3975 43.9664 46.6026 43.6768 46.8077L43.7009 46.8318C43.7009 46.8318 43.713 46.8439 43.725 46.8559C45.8491 45.3722 47.7318 43.6109 49.4214 41.6446C49.4456 41.6205 49.4576 41.5964 49.4818 41.5723C49.3611 41.6567 49.2404 41.7532 49.1077 41.8377C47.7922 43.3456 46.3681 44.7328 44.7871 45.9512L44.8112 45.9753Z" fill="white"/>
<path d="M43.966 24.961C43.8815 24.9489 43.797 24.9248 43.7246 24.9248C43.8091 24.9248 43.8815 24.9489 43.966 24.961Z" fill="white"/>
<path d="M10.8133 46.8318C10.7891 46.7474 10.765 46.6629 10.7409 46.5785C10.7167 46.5182 10.7047 46.4699 10.6805 46.4217C10.6564 46.3734 10.6323 46.3252 10.6202 46.2769C10.5719 46.1804 10.5236 46.0718 10.4754 45.9874C10.4512 45.9391 10.4271 45.9029 10.403 45.8547C10.2219 45.5411 10.0168 45.2636 9.84779 44.9741C9.82366 44.9379 9.79952 44.8896 9.77538 44.8535C9.4978 44.3709 9.20816 43.8763 8.93058 43.3817C8.653 42.8992 8.37542 42.4046 8.09784 41.91C8.08577 41.8739 8.06163 41.8497 8.04956 41.8135C7.8444 41.4396 7.62716 41.0656 7.43406 40.6917C7.20476 40.2815 6.98752 39.8593 6.77029 39.4371C6.66167 39.232 6.56512 39.0269 6.4565 38.8339C6.35995 38.6289 6.25133 38.4238 6.15478 38.2187C6.04617 38.0016 5.94962 37.7844 5.841 37.5552C5.75652 37.3743 5.67204 37.1813 5.58756 36.9883C5.30998 36.3489 5.04447 35.6975 4.8031 35.034C4.71861 34.8048 4.6462 34.5756 4.58586 34.3464C4.56172 34.2379 4.52552 34.1172 4.50138 34.0087C4.46517 33.8639 4.44104 33.7192 4.4169 33.5744C4.39276 33.4417 4.38069 33.3211 4.36862 33.1884C4.24794 32.163 4.33242 31.1376 4.61 30.1847C4.6462 30.0761 4.67034 29.9675 4.70655 29.871C4.91171 29.2437 5.20136 28.6526 5.57549 28.1098C5.63583 28.0253 5.69618 27.9288 5.76859 27.8444C5.76859 27.8444 5.85307 27.7358 5.90134 27.6755C5.93755 27.6273 5.97376 27.579 6.00996 27.5428C6.0341 27.5066 6.07031 27.4704 6.09444 27.4463C6.20306 27.3136 6.32375 27.193 6.44443 27.0724C6.56512 26.9517 6.69787 26.8311 6.83063 26.7225C6.95132 26.614 7.08407 26.5175 7.21683 26.421C7.30131 26.3606 7.39786 26.2883 7.48234 26.2279C7.54268 26.1918 7.60302 26.1435 7.67544 26.1073C7.73578 26.0711 7.78405 26.0349 7.8444 25.9987C8.24266 25.7575 8.67713 25.5645 9.14781 25.4076C10.403 24.9975 11.634 24.8045 12.8046 24.8648C12.8167 24.8648 12.8288 24.8648 12.8529 24.8648H12.877C11.6581 24.7804 10.3667 24.9492 9.05126 25.3835C8.52024 25.5645 8.0375 25.7937 7.57889 26.0711C7.51854 26.1073 7.44613 26.1556 7.38579 26.1918C7.28924 26.2521 7.20476 26.3124 7.12028 26.3848C7.08407 26.4089 7.05993 26.433 7.02373 26.4571C6.92718 26.5295 6.83063 26.6019 6.73408 26.6863C6.60133 26.7949 6.48064 26.9155 6.34788 27.0362C6.2272 27.1568 6.10651 27.2895 5.99789 27.4101C5.97376 27.4463 5.93755 27.4704 5.91341 27.5066C5.87721 27.5549 5.841 27.6031 5.80479 27.6393C5.75652 27.6996 5.72031 27.7479 5.67204 27.8082C5.6117 27.8927 5.53928 27.9892 5.47894 28.0736C5.11688 28.6164 4.82723 29.2075 4.61 29.8348C4.57379 29.9434 4.53759 30.0399 4.51345 30.1485C4.24794 31.1015 4.15139 32.1148 4.27208 33.1522C4.28414 33.2849 4.30828 33.4055 4.32035 33.5382C4.34449 33.683 4.36862 33.8277 4.40483 33.9725C4.42897 34.0811 4.45311 34.2017 4.48931 34.3103C4.54965 34.5395 4.62207 34.7687 4.70655 34.9979C4.94792 35.6613 5.21343 36.3127 5.49101 36.9521C5.57549 37.1451 5.65997 37.326 5.74445 37.5191C5.841 37.7362 5.94962 37.9654 6.05824 38.1825C6.15478 38.3876 6.25133 38.5927 6.35995 38.7977C6.4565 39.0028 6.56512 39.2079 6.67374 39.4009C6.89097 39.8231 7.10821 40.2333 7.33751 40.6555C7.54268 41.0294 7.74785 41.4034 7.95302 41.7773C7.96508 41.8135 7.98922 41.8377 8.00129 41.8739C8.27887 42.3684 8.55645 42.851 8.83403 43.3456C9.11161 43.8281 9.40125 44.3227 9.67883 44.8173C9.70297 44.8535 9.72711 44.9017 9.75125 44.9379C9.93227 45.2274 10.1254 45.5049 10.3064 45.8185C10.3305 45.8668 10.3547 45.9029 10.3788 45.9512C10.4271 46.0477 10.4754 46.1442 10.5236 46.2528C10.5478 46.301 10.5719 46.3493 10.584 46.3975C10.6081 46.4458 10.6323 46.5061 10.6443 46.5544C10.6685 46.6388 10.6926 46.7232 10.7167 46.8077C10.7167 46.8077 10.7409 46.8801 10.7409 46.9163C10.7409 46.9524 10.7529 46.9886 10.765 47.0369C10.8012 47.061 10.8254 47.0731 10.8736 47.0972C10.8616 47.0007 10.8374 46.9163 10.8133 46.8318Z" fill="white"/>
<path d="M50.6279 40.3296C50.2297 40.7277 49.8073 41.1017 49.4331 41.5118C49.4331 41.5118 49.4331 41.5118 49.4211 41.5239C49.4211 41.5239 49.3849 41.5721 49.3607 41.5963C49.3004 41.6566 49.24 41.7169 49.1797 41.7893C49.3004 41.7048 49.4211 41.6204 49.5417 41.5239C49.8917 41.1379 50.2779 40.788 50.6521 40.4261V40.2935L50.6279 40.3296Z" fill="white"/>
<path d="M37.5817 26.4209C37.111 26.8069 36.6645 27.2653 36.2541 27.8202C36.23 27.8564 36.2058 27.8805 36.1817 27.9046C36.1576 27.9408 36.1334 27.977 36.1093 28.0132C36.061 28.0735 36.0248 28.1338 35.9765 28.1942C35.9765 28.2062 35.9524 28.2183 35.9403 28.2424C35.9041 28.3027 35.8679 28.351 35.8317 28.4113C35.7955 28.4595 35.7714 28.4957 35.7472 28.544C35.7231 28.5802 35.699 28.6284 35.6748 28.6646C35.6748 28.6767 35.6507 28.7008 35.6386 28.7129C35.6145 28.7611 35.5783 28.8094 35.5541 28.8576C35.5179 28.9179 35.4817 28.9783 35.4576 29.0386C35.4335 29.0868 35.4093 29.1351 35.3852 29.1833C35.361 29.2316 35.3369 29.2798 35.3128 29.3281C35.2886 29.3763 35.2645 29.4367 35.2283 29.4849L35.18 29.5935C35.1438 29.6779 35.1076 29.7624 35.0593 29.8468C34.5042 31.1376 34.2266 32.5248 34.2266 34.0086C34.2266 34.4308 34.2266 34.841 34.2266 35.2632L27.3354 42.0306L27.2871 42.0789L27.3475 42.1392L34.3231 35.2873C34.3231 34.8651 34.3231 34.4549 34.3231 34.0327C34.3231 32.561 34.6007 31.1617 35.1559 29.8709C35.1921 29.7865 35.2283 29.7021 35.2766 29.6176L35.3248 29.509C35.3248 29.509 35.3731 29.4005 35.4093 29.3522C35.4335 29.304 35.4576 29.2557 35.4817 29.2075C35.5059 29.1592 35.53 29.111 35.5541 29.0627C35.5903 29.0024 35.6266 28.9421 35.6507 28.8818C35.6748 28.8335 35.711 28.7853 35.7352 28.737C35.7352 28.7249 35.7593 28.7008 35.7714 28.6887C35.7955 28.6526 35.8197 28.6043 35.8438 28.5681C35.8679 28.5199 35.9041 28.4837 35.9283 28.4354C35.9645 28.3751 36.0007 28.3269 36.0369 28.2665C36.0369 28.2545 36.061 28.2303 36.061 28.2183C36.0972 28.158 36.1455 28.0977 36.1938 28.0373C36.2179 28.0011 36.2421 27.965 36.2662 27.9288C36.2903 27.8926 36.3145 27.8564 36.3386 27.8202C37.9558 25.673 40.0678 24.8285 42.3971 24.8285C40.623 24.8044 38.9696 25.2628 37.5696 26.4088L37.5817 26.4209Z" fill="white"/>
<path d="M13.9155 24.985C13.9155 24.985 13.831 24.9609 13.7827 24.9609C13.7103 24.9488 13.6379 24.9368 13.5534 24.9247C13.5051 24.9247 13.4448 24.9127 13.3965 24.9006C13.2879 24.8885 13.1793 24.8885 13.0586 24.8765C13.2034 24.8885 13.3482 24.9006 13.4931 24.9247C13.5413 24.9247 13.6017 24.9368 13.65 24.9488C13.7224 24.9488 13.7948 24.973 13.8793 24.985C13.9275 24.985 13.9637 25.0092 14.012 25.0092C14.0724 25.0092 14.1206 25.0333 14.181 25.0453C14.0965 25.0212 13.9999 25.0092 13.9155 24.985Z" fill="white"/>
<path d="M41.8176 23.7066C43.5917 23.8755 45.1365 23.2361 46.6813 22.5485C46.7054 22.5244 46.7416 22.5003 46.7658 22.4641C45.2089 23.1517 43.6762 23.779 41.9021 23.6221C39.2711 23.3809 37.3401 22.0419 35.8678 19.9429H35.7471C35.7471 19.9429 35.7712 19.9911 35.7833 20.0273C37.2677 22.1263 39.1866 23.4653 41.8176 23.7066Z" fill="white"/>
<path d="M17.5475 21.1855C15.1096 23.5982 12.2735 24.2737 9.20804 23.0915C8.6046 22.8623 8.06151 22.4884 7.48222 22.1868C7.47015 22.223 7.43394 22.2471 7.42188 22.2833C7.9891 22.5849 8.53219 22.9468 9.12356 23.176C12.2252 24.3702 15.0975 23.6706 17.5475 21.1855Z" fill="white"/>
</svg>
